G04 #@! TF.GenerationSoftware,KiCad,Pcbnew,6.0.11+dfsg-1~bpo11+1*
G04 #@! TF.CreationDate,2023-05-06T05:53:47+00:00*
G04 #@! TF.ProjectId,huibike,68756962-696b-4652-9e6b-696361645f70,rev?*
G04 #@! TF.SameCoordinates,Original*
G04 #@! TF.FileFunction,Soldermask,Top*
G04 #@! TF.FilePolarity,Negative*
%FSLAX46Y46*%
G04 Gerber Fmt 4.6, Leading zero omitted, Abs format (unit mm)*
G04 Created by KiCad (PCBNEW 6.0.11+dfsg-1~bpo11+1) date 2023-05-06 05:53:47*
%MOMM*%
%LPD*%
G01*
G04 APERTURE LIST*
%ADD10R,1.000000X1.500000*%
%ADD11R,1.700000X1.700000*%
%ADD12O,1.700000X1.700000*%
%ADD13R,1.700000X1.300000*%
%ADD14R,1.200000X2.200000*%
%ADD15R,5.800000X6.400000*%
G04 APERTURE END LIST*
G36*
G01*
X104170000Y-54760000D02*
X103830000Y-54760000D01*
G75*
G02*
X103690000Y-54620000I0J140000D01*
G01*
X103690000Y-54340000D01*
G75*
G02*
X103830000Y-54200000I140000J0D01*
G01*
X104170000Y-54200000D01*
G75*
G02*
X104310000Y-54340000I0J-140000D01*
G01*
X104310000Y-54620000D01*
G75*
G02*
X104170000Y-54760000I-140000J0D01*
G01*
G37*
G36*
G01*
X104170000Y-53800000D02*
X103830000Y-53800000D01*
G75*
G02*
X103690000Y-53660000I0J140000D01*
G01*
X103690000Y-53380000D01*
G75*
G02*
X103830000Y-53240000I140000J0D01*
G01*
X104170000Y-53240000D01*
G75*
G02*
X104310000Y-53380000I0J-140000D01*
G01*
X104310000Y-53660000D01*
G75*
G02*
X104170000Y-53800000I-140000J0D01*
G01*
G37*
G36*
G01*
X99325000Y-60200000D02*
X99325000Y-59900000D01*
G75*
G02*
X99475000Y-59750000I150000J0D01*
G01*
X100650000Y-59750000D01*
G75*
G02*
X100800000Y-59900000I0J-150000D01*
G01*
X100800000Y-60200000D01*
G75*
G02*
X100650000Y-60350000I-150000J0D01*
G01*
X99475000Y-60350000D01*
G75*
G02*
X99325000Y-60200000I0J150000D01*
G01*
G37*
G36*
G01*
X99325000Y-62100000D02*
X99325000Y-61800000D01*
G75*
G02*
X99475000Y-61650000I150000J0D01*
G01*
X100650000Y-61650000D01*
G75*
G02*
X100800000Y-61800000I0J-150000D01*
G01*
X100800000Y-62100000D01*
G75*
G02*
X100650000Y-62250000I-150000J0D01*
G01*
X99475000Y-62250000D01*
G75*
G02*
X99325000Y-62100000I0J150000D01*
G01*
G37*
G36*
G01*
X101200000Y-61150000D02*
X101200000Y-60850000D01*
G75*
G02*
X101350000Y-60700000I150000J0D01*
G01*
X102525000Y-60700000D01*
G75*
G02*
X102675000Y-60850000I0J-150000D01*
G01*
X102675000Y-61150000D01*
G75*
G02*
X102525000Y-61300000I-150000J0D01*
G01*
X101350000Y-61300000D01*
G75*
G02*
X101200000Y-61150000I0J150000D01*
G01*
G37*
D10*
X100850000Y-53500000D03*
X102150000Y-53500000D03*
G36*
G01*
X87550000Y-64475000D02*
X87550000Y-63525000D01*
G75*
G02*
X87800000Y-63275000I250000J0D01*
G01*
X88300000Y-63275000D01*
G75*
G02*
X88550000Y-63525000I0J-250000D01*
G01*
X88550000Y-64475000D01*
G75*
G02*
X88300000Y-64725000I-250000J0D01*
G01*
X87800000Y-64725000D01*
G75*
G02*
X87550000Y-64475000I0J250000D01*
G01*
G37*
G36*
G01*
X89450000Y-64475000D02*
X89450000Y-63525000D01*
G75*
G02*
X89700000Y-63275000I250000J0D01*
G01*
X90200000Y-63275000D01*
G75*
G02*
X90450000Y-63525000I0J-250000D01*
G01*
X90450000Y-64475000D01*
G75*
G02*
X90200000Y-64725000I-250000J0D01*
G01*
X89700000Y-64725000D01*
G75*
G02*
X89450000Y-64475000I0J250000D01*
G01*
G37*
G36*
G01*
X94470000Y-58185000D02*
X94470000Y-57815000D01*
G75*
G02*
X94605000Y-57680000I135000J0D01*
G01*
X94875000Y-57680000D01*
G75*
G02*
X95010000Y-57815000I0J-135000D01*
G01*
X95010000Y-58185000D01*
G75*
G02*
X94875000Y-58320000I-135000J0D01*
G01*
X94605000Y-58320000D01*
G75*
G02*
X94470000Y-58185000I0J135000D01*
G01*
G37*
G36*
G01*
X95490000Y-58185000D02*
X95490000Y-57815000D01*
G75*
G02*
X95625000Y-57680000I135000J0D01*
G01*
X95895000Y-57680000D01*
G75*
G02*
X96030000Y-57815000I0J-135000D01*
G01*
X96030000Y-58185000D01*
G75*
G02*
X95895000Y-58320000I-135000J0D01*
G01*
X95625000Y-58320000D01*
G75*
G02*
X95490000Y-58185000I0J135000D01*
G01*
G37*
D11*
X84000000Y-64350000D03*
D12*
X84000000Y-61810000D03*
X84000000Y-59270000D03*
X84000000Y-56730000D03*
X84000000Y-54190000D03*
X84000000Y-51650000D03*
G36*
G01*
X104185000Y-57270000D02*
X103815000Y-57270000D01*
G75*
G02*
X103680000Y-57135000I0J135000D01*
G01*
X103680000Y-56865000D01*
G75*
G02*
X103815000Y-56730000I135000J0D01*
G01*
X104185000Y-56730000D01*
G75*
G02*
X104320000Y-56865000I0J-135000D01*
G01*
X104320000Y-57135000D01*
G75*
G02*
X104185000Y-57270000I-135000J0D01*
G01*
G37*
G36*
G01*
X104185000Y-56250000D02*
X103815000Y-56250000D01*
G75*
G02*
X103680000Y-56115000I0J135000D01*
G01*
X103680000Y-55845000D01*
G75*
G02*
X103815000Y-55710000I135000J0D01*
G01*
X104185000Y-55710000D01*
G75*
G02*
X104320000Y-55845000I0J-135000D01*
G01*
X104320000Y-56115000D01*
G75*
G02*
X104185000Y-56250000I-135000J0D01*
G01*
G37*
G36*
G01*
X103470000Y-59685000D02*
X103470000Y-59315000D01*
G75*
G02*
X103605000Y-59180000I135000J0D01*
G01*
X103875000Y-59180000D01*
G75*
G02*
X104010000Y-59315000I0J-135000D01*
G01*
X104010000Y-59685000D01*
G75*
G02*
X103875000Y-59820000I-135000J0D01*
G01*
X103605000Y-59820000D01*
G75*
G02*
X103470000Y-59685000I0J135000D01*
G01*
G37*
G36*
G01*
X104490000Y-59685000D02*
X104490000Y-59315000D01*
G75*
G02*
X104625000Y-59180000I135000J0D01*
G01*
X104895000Y-59180000D01*
G75*
G02*
X105030000Y-59315000I0J-135000D01*
G01*
X105030000Y-59685000D01*
G75*
G02*
X104895000Y-59820000I-135000J0D01*
G01*
X104625000Y-59820000D01*
G75*
G02*
X104490000Y-59685000I0J135000D01*
G01*
G37*
D13*
X104250000Y-61250000D03*
X104250000Y-64750000D03*
X95250000Y-56250000D03*
X95250000Y-52750000D03*
G36*
G01*
X97170000Y-58280000D02*
X96830000Y-58280000D01*
G75*
G02*
X96690000Y-58140000I0J140000D01*
G01*
X96690000Y-57860000D01*
G75*
G02*
X96830000Y-57720000I140000J0D01*
G01*
X97170000Y-57720000D01*
G75*
G02*
X97310000Y-57860000I0J-140000D01*
G01*
X97310000Y-58140000D01*
G75*
G02*
X97170000Y-58280000I-140000J0D01*
G01*
G37*
G36*
G01*
X97170000Y-57320000D02*
X96830000Y-57320000D01*
G75*
G02*
X96690000Y-57180000I0J140000D01*
G01*
X96690000Y-56900000D01*
G75*
G02*
X96830000Y-56760000I140000J0D01*
G01*
X97170000Y-56760000D01*
G75*
G02*
X97310000Y-56900000I0J-140000D01*
G01*
X97310000Y-57180000D01*
G75*
G02*
X97170000Y-57320000I-140000J0D01*
G01*
G37*
G36*
G01*
X97185000Y-56030000D02*
X96815000Y-56030000D01*
G75*
G02*
X96680000Y-55895000I0J135000D01*
G01*
X96680000Y-55625000D01*
G75*
G02*
X96815000Y-55490000I135000J0D01*
G01*
X97185000Y-55490000D01*
G75*
G02*
X97320000Y-55625000I0J-135000D01*
G01*
X97320000Y-55895000D01*
G75*
G02*
X97185000Y-56030000I-135000J0D01*
G01*
G37*
G36*
G01*
X97185000Y-55010000D02*
X96815000Y-55010000D01*
G75*
G02*
X96680000Y-54875000I0J135000D01*
G01*
X96680000Y-54605000D01*
G75*
G02*
X96815000Y-54470000I135000J0D01*
G01*
X97185000Y-54470000D01*
G75*
G02*
X97320000Y-54605000I0J-135000D01*
G01*
X97320000Y-54875000D01*
G75*
G02*
X97185000Y-55010000I-135000J0D01*
G01*
G37*
D14*
X87970000Y-61450000D03*
D15*
X90250000Y-55150000D03*
D14*
X92530000Y-61450000D03*
G36*
G01*
X86685000Y-64780000D02*
X86315000Y-64780000D01*
G75*
G02*
X86180000Y-64645000I0J135000D01*
G01*
X86180000Y-64375000D01*
G75*
G02*
X86315000Y-64240000I135000J0D01*
G01*
X86685000Y-64240000D01*
G75*
G02*
X86820000Y-64375000I0J-135000D01*
G01*
X86820000Y-64645000D01*
G75*
G02*
X86685000Y-64780000I-135000J0D01*
G01*
G37*
G36*
G01*
X86685000Y-63760000D02*
X86315000Y-63760000D01*
G75*
G02*
X86180000Y-63625000I0J135000D01*
G01*
X86180000Y-63355000D01*
G75*
G02*
X86315000Y-63220000I135000J0D01*
G01*
X86685000Y-63220000D01*
G75*
G02*
X86820000Y-63355000I0J-135000D01*
G01*
X86820000Y-63625000D01*
G75*
G02*
X86685000Y-63760000I-135000J0D01*
G01*
G37*
G36*
G01*
X99450000Y-56200000D02*
X99450000Y-55900000D01*
G75*
G02*
X99600000Y-55750000I150000J0D01*
G01*
X100625000Y-55750000D01*
G75*
G02*
X100775000Y-55900000I0J-150000D01*
G01*
X100775000Y-56200000D01*
G75*
G02*
X100625000Y-56350000I-150000J0D01*
G01*
X99600000Y-56350000D01*
G75*
G02*
X99450000Y-56200000I0J150000D01*
G01*
G37*
G36*
G01*
X99450000Y-57150000D02*
X99450000Y-56850000D01*
G75*
G02*
X99600000Y-56700000I150000J0D01*
G01*
X100625000Y-56700000D01*
G75*
G02*
X100775000Y-56850000I0J-150000D01*
G01*
X100775000Y-57150000D01*
G75*
G02*
X100625000Y-57300000I-150000J0D01*
G01*
X99600000Y-57300000D01*
G75*
G02*
X99450000Y-57150000I0J150000D01*
G01*
G37*
G36*
G01*
X99450000Y-58100000D02*
X99450000Y-57800000D01*
G75*
G02*
X99600000Y-57650000I150000J0D01*
G01*
X100625000Y-57650000D01*
G75*
G02*
X100775000Y-57800000I0J-150000D01*
G01*
X100775000Y-58100000D01*
G75*
G02*
X100625000Y-58250000I-150000J0D01*
G01*
X99600000Y-58250000D01*
G75*
G02*
X99450000Y-58100000I0J150000D01*
G01*
G37*
G36*
G01*
X101725000Y-58100000D02*
X101725000Y-57800000D01*
G75*
G02*
X101875000Y-57650000I150000J0D01*
G01*
X102900000Y-57650000D01*
G75*
G02*
X103050000Y-57800000I0J-150000D01*
G01*
X103050000Y-58100000D01*
G75*
G02*
X102900000Y-58250000I-150000J0D01*
G01*
X101875000Y-58250000D01*
G75*
G02*
X101725000Y-58100000I0J150000D01*
G01*
G37*
G36*
G01*
X101725000Y-57150000D02*
X101725000Y-56850000D01*
G75*
G02*
X101875000Y-56700000I150000J0D01*
G01*
X102900000Y-56700000D01*
G75*
G02*
X103050000Y-56850000I0J-150000D01*
G01*
X103050000Y-57150000D01*
G75*
G02*
X102900000Y-57300000I-150000J0D01*
G01*
X101875000Y-57300000D01*
G75*
G02*
X101725000Y-57150000I0J150000D01*
G01*
G37*
G36*
G01*
X101725000Y-56200000D02*
X101725000Y-55900000D01*
G75*
G02*
X101875000Y-55750000I150000J0D01*
G01*
X102900000Y-55750000D01*
G75*
G02*
X103050000Y-55900000I0J-150000D01*
G01*
X103050000Y-56200000D01*
G75*
G02*
X102900000Y-56350000I-150000J0D01*
G01*
X101875000Y-56350000D01*
G75*
G02*
X101725000Y-56200000I0J150000D01*
G01*
G37*
G36*
G01*
X100970000Y-64935000D02*
X100970000Y-64565000D01*
G75*
G02*
X101105000Y-64430000I135000J0D01*
G01*
X101375000Y-64430000D01*
G75*
G02*
X101510000Y-64565000I0J-135000D01*
G01*
X101510000Y-64935000D01*
G75*
G02*
X101375000Y-65070000I-135000J0D01*
G01*
X101105000Y-65070000D01*
G75*
G02*
X100970000Y-64935000I0J135000D01*
G01*
G37*
G36*
G01*
X101990000Y-64935000D02*
X101990000Y-64565000D01*
G75*
G02*
X102125000Y-64430000I135000J0D01*
G01*
X102395000Y-64430000D01*
G75*
G02*
X102530000Y-64565000I0J-135000D01*
G01*
X102530000Y-64935000D01*
G75*
G02*
X102395000Y-65070000I-135000J0D01*
G01*
X102125000Y-65070000D01*
G75*
G02*
X101990000Y-64935000I0J135000D01*
G01*
G37*
G36*
G01*
X96525000Y-59550000D02*
X97475000Y-59550000D01*
G75*
G02*
X97725000Y-59800000I0J-250000D01*
G01*
X97725000Y-60300000D01*
G75*
G02*
X97475000Y-60550000I-250000J0D01*
G01*
X96525000Y-60550000D01*
G75*
G02*
X96275000Y-60300000I0J250000D01*
G01*
X96275000Y-59800000D01*
G75*
G02*
X96525000Y-59550000I250000J0D01*
G01*
G37*
G36*
G01*
X96525000Y-61450000D02*
X97475000Y-61450000D01*
G75*
G02*
X97725000Y-61700000I0J-250000D01*
G01*
X97725000Y-62200000D01*
G75*
G02*
X97475000Y-62450000I-250000J0D01*
G01*
X96525000Y-62450000D01*
G75*
G02*
X96275000Y-62200000I0J250000D01*
G01*
X96275000Y-61700000D01*
G75*
G02*
X96525000Y-61450000I250000J0D01*
G01*
G37*
M02*
