G04 #@! TF.GenerationSoftware,KiCad,Pcbnew,6.0.11+dfsg-1~bpo11+1*
G04 #@! TF.CreationDate,2023-05-06T05:53:47+00:00*
G04 #@! TF.ProjectId,huibike,68756962-696b-4652-9e6b-696361645f70,rev?*
G04 #@! TF.SameCoordinates,Original*
G04 #@! TF.FileFunction,Legend,Bot*
G04 #@! TF.FilePolarity,Positive*
%FSLAX46Y46*%
G04 Gerber Fmt 4.6, Leading zero omitted, Abs format (unit mm)*
G04 Created by KiCad (PCBNEW 6.0.11+dfsg-1~bpo11+1) date 2023-05-06 05:53:47*
%MOMM*%
%LPD*%
G01*
G04 APERTURE LIST*
%ADD10C,0.150000*%
%ADD11C,0.010000*%
G04 APERTURE END LIST*
D10*
X102880952Y-59702380D02*
X102547619Y-59226190D01*
X102309523Y-59702380D02*
X102309523Y-58702380D01*
X102690476Y-58702380D01*
X102785714Y-58750000D01*
X102833333Y-58797619D01*
X102880952Y-58892857D01*
X102880952Y-59035714D01*
X102833333Y-59130952D01*
X102785714Y-59178571D01*
X102690476Y-59226190D01*
X102309523Y-59226190D01*
X103833333Y-59702380D02*
X103261904Y-59702380D01*
X103547619Y-59702380D02*
X103547619Y-58702380D01*
X103452380Y-58845238D01*
X103357142Y-58940476D01*
X103261904Y-58988095D01*
X104452380Y-58702380D02*
X104547619Y-58702380D01*
X104642857Y-58750000D01*
X104690476Y-58797619D01*
X104738095Y-58892857D01*
X104785714Y-59083333D01*
X104785714Y-59321428D01*
X104738095Y-59511904D01*
X104690476Y-59607142D01*
X104642857Y-59654761D01*
X104547619Y-59702380D01*
X104452380Y-59702380D01*
X104357142Y-59654761D01*
X104309523Y-59607142D01*
X104261904Y-59511904D01*
X104214285Y-59321428D01*
X104214285Y-59083333D01*
X104261904Y-58892857D01*
X104309523Y-58797619D01*
X104357142Y-58750000D01*
X104452380Y-58702380D01*
X105166666Y-58797619D02*
X105214285Y-58750000D01*
X105309523Y-58702380D01*
X105547619Y-58702380D01*
X105642857Y-58750000D01*
X105690476Y-58797619D01*
X105738095Y-58892857D01*
X105738095Y-58988095D01*
X105690476Y-59130952D01*
X105119047Y-59702380D01*
X105738095Y-59702380D01*
X104702380Y-61309523D02*
X103702380Y-61309523D01*
X103702380Y-61547619D01*
X103750000Y-61690476D01*
X103845238Y-61785714D01*
X103940476Y-61833333D01*
X104130952Y-61880952D01*
X104273809Y-61880952D01*
X104464285Y-61833333D01*
X104559523Y-61785714D01*
X104654761Y-61690476D01*
X104702380Y-61547619D01*
X104702380Y-61309523D01*
X104702380Y-62833333D02*
X104702380Y-62261904D01*
X104702380Y-62547619D02*
X103702380Y-62547619D01*
X103845238Y-62452380D01*
X103940476Y-62357142D01*
X103988095Y-62261904D01*
X103702380Y-63452380D02*
X103702380Y-63547619D01*
X103750000Y-63642857D01*
X103797619Y-63690476D01*
X103892857Y-63738095D01*
X104083333Y-63785714D01*
X104321428Y-63785714D01*
X104511904Y-63738095D01*
X104607142Y-63690476D01*
X104654761Y-63642857D01*
X104702380Y-63547619D01*
X104702380Y-63452380D01*
X104654761Y-63357142D01*
X104607142Y-63309523D01*
X104511904Y-63261904D01*
X104321428Y-63214285D01*
X104083333Y-63214285D01*
X103892857Y-63261904D01*
X103797619Y-63309523D01*
X103750000Y-63357142D01*
X103702380Y-63452380D01*
X104702380Y-64738095D02*
X104702380Y-64166666D01*
X104702380Y-64452380D02*
X103702380Y-64452380D01*
X103845238Y-64357142D01*
X103940476Y-64261904D01*
X103988095Y-64166666D01*
X102964285Y-56452380D02*
X102964285Y-57261904D01*
X102916666Y-57357142D01*
X102869047Y-57404761D01*
X102773809Y-57452380D01*
X102583333Y-57452380D01*
X102488095Y-57404761D01*
X102440476Y-57357142D01*
X102392857Y-57261904D01*
X102392857Y-56452380D01*
X101392857Y-57452380D02*
X101964285Y-57452380D01*
X101678571Y-57452380D02*
X101678571Y-56452380D01*
X101773809Y-56595238D01*
X101869047Y-56690476D01*
X101964285Y-56738095D01*
X100773809Y-56452380D02*
X100678571Y-56452380D01*
X100583333Y-56500000D01*
X100535714Y-56547619D01*
X100488095Y-56642857D01*
X100440476Y-56833333D01*
X100440476Y-57071428D01*
X100488095Y-57261904D01*
X100535714Y-57357142D01*
X100583333Y-57404761D01*
X100678571Y-57452380D01*
X100773809Y-57452380D01*
X100869047Y-57404761D01*
X100916666Y-57357142D01*
X100964285Y-57261904D01*
X101011904Y-57071428D01*
X101011904Y-56833333D01*
X100964285Y-56642857D01*
X100916666Y-56547619D01*
X100869047Y-56500000D01*
X100773809Y-56452380D01*
X99488095Y-57452380D02*
X100059523Y-57452380D01*
X99773809Y-57452380D02*
X99773809Y-56452380D01*
X99869047Y-56595238D01*
X99964285Y-56690476D01*
X100059523Y-56738095D01*
G36*
X89511662Y-57760696D02*
G01*
X89551314Y-57761782D01*
X89619109Y-57761782D01*
X89619109Y-57874951D01*
X89459577Y-57874951D01*
X89444682Y-58052732D01*
X89442682Y-58077037D01*
X89438023Y-58137880D01*
X89434731Y-58187389D01*
X89433092Y-58220992D01*
X89433390Y-58234116D01*
X89437724Y-58230343D01*
X89457496Y-58210676D01*
X89491679Y-58175818D01*
X89538541Y-58127576D01*
X89596354Y-58067757D01*
X89663387Y-57998167D01*
X89737912Y-57920615D01*
X89818197Y-57836907D01*
X89902513Y-57748849D01*
X89989130Y-57658250D01*
X90076319Y-57566915D01*
X90162349Y-57476653D01*
X90245492Y-57389269D01*
X90324016Y-57306572D01*
X90396192Y-57230368D01*
X90460291Y-57162463D01*
X90514583Y-57104666D01*
X90611592Y-57001040D01*
X90612034Y-57089315D01*
X90612475Y-57177589D01*
X90011938Y-57809158D01*
X89411401Y-58440726D01*
X89399396Y-58584674D01*
X89351365Y-59160635D01*
X89342876Y-59262791D01*
X89332343Y-59390612D01*
X89322621Y-59509767D01*
X89313898Y-59617914D01*
X89306358Y-59712713D01*
X89300187Y-59791819D01*
X89295573Y-59852892D01*
X89292700Y-59893590D01*
X89291754Y-59911570D01*
X89294251Y-59919808D01*
X89305471Y-59937599D01*
X89326751Y-59964411D01*
X89337021Y-59976129D01*
X89359225Y-60001466D01*
X89404023Y-60049986D01*
X89462281Y-60111192D01*
X89535129Y-60186307D01*
X89623703Y-60276550D01*
X89729134Y-60383145D01*
X89798492Y-60453093D01*
X89895179Y-60550658D01*
X89991526Y-60647941D01*
X90084638Y-60742014D01*
X90171618Y-60829950D01*
X90249569Y-60908820D01*
X90315596Y-60975699D01*
X90366802Y-61027658D01*
X90567514Y-61231620D01*
X90531058Y-61269671D01*
X90522460Y-61278245D01*
X90497095Y-61299297D01*
X90479695Y-61307723D01*
X90466071Y-61300530D01*
X90440743Y-61278944D01*
X90410379Y-61247995D01*
X90391896Y-61228448D01*
X90357427Y-61192752D01*
X90308712Y-61142684D01*
X90247469Y-61080001D01*
X90175420Y-61006457D01*
X90094285Y-60923810D01*
X90005784Y-60833815D01*
X89911637Y-60738228D01*
X89813565Y-60638805D01*
X89271161Y-60089343D01*
X89249066Y-60374746D01*
X89244250Y-60435662D01*
X89237216Y-60517548D01*
X89230872Y-60579569D01*
X89224748Y-60624987D01*
X89218373Y-60657062D01*
X89211277Y-60679052D01*
X89202991Y-60694219D01*
X89191393Y-60715416D01*
X89181850Y-60754386D01*
X89179010Y-60810531D01*
X89179010Y-60892773D01*
X88952674Y-60892773D01*
X88952674Y-60716733D01*
X88107082Y-60716733D01*
X88058203Y-60772262D01*
X88044836Y-60786722D01*
X87972388Y-60844813D01*
X87890532Y-60880576D01*
X87801900Y-60892773D01*
X87723692Y-60886306D01*
X87635233Y-60859047D01*
X87559507Y-60810328D01*
X87544748Y-60796403D01*
X87507864Y-60751328D01*
X87475503Y-60698819D01*
X87452297Y-60647061D01*
X87442879Y-60604239D01*
X87442697Y-60598023D01*
X87441342Y-60575246D01*
X87437800Y-60559513D01*
X87430390Y-60552068D01*
X87417431Y-60554156D01*
X87397243Y-60567020D01*
X87368145Y-60591905D01*
X87328456Y-60630053D01*
X87276496Y-60682710D01*
X87210584Y-60751119D01*
X87129040Y-60836524D01*
X87085604Y-60882112D01*
X87013000Y-60958441D01*
X86944309Y-61030808D01*
X86882223Y-61096366D01*
X86829434Y-61152274D01*
X86788634Y-61195686D01*
X86762515Y-61223758D01*
X86691119Y-61301436D01*
X86602863Y-61213416D01*
X87148690Y-60641287D01*
X87183105Y-60605188D01*
X87305546Y-60476272D01*
X87410651Y-60364754D01*
X87498736Y-60270288D01*
X87570116Y-60192529D01*
X87620588Y-60136174D01*
X87827247Y-60136174D01*
X87828872Y-60149434D01*
X87829156Y-60150819D01*
X87842698Y-60182228D01*
X87869748Y-60196863D01*
X87953129Y-60228063D01*
X88027418Y-60280038D01*
X88085846Y-60348791D01*
X88125890Y-60431315D01*
X88145026Y-60524606D01*
X88151364Y-60603565D01*
X89100838Y-60603565D01*
X89107458Y-60575273D01*
X89108629Y-60568329D01*
X89112268Y-60537281D01*
X89117234Y-60487081D01*
X89123157Y-60421727D01*
X89129669Y-60345219D01*
X89136401Y-60261555D01*
X89158724Y-59976129D01*
X88857826Y-59670565D01*
X88802636Y-59614704D01*
X88735109Y-59546888D01*
X88674529Y-59486643D01*
X88623021Y-59436052D01*
X88582710Y-59397200D01*
X88555722Y-59372170D01*
X88544182Y-59363046D01*
X88536444Y-59367405D01*
X88513395Y-59387241D01*
X88478709Y-59420375D01*
X88435487Y-59463820D01*
X88386832Y-59514587D01*
X88374140Y-59528051D01*
X88317229Y-59588275D01*
X88249414Y-59659864D01*
X88175800Y-59737437D01*
X88101493Y-59815611D01*
X88031599Y-59889005D01*
X88027401Y-59893409D01*
X87962420Y-59961785D01*
X87912836Y-60014732D01*
X87876688Y-60054767D01*
X87852016Y-60084411D01*
X87836858Y-60106181D01*
X87829256Y-60122595D01*
X87827247Y-60136174D01*
X87620588Y-60136174D01*
X87625105Y-60131131D01*
X87664019Y-60085748D01*
X87687173Y-60056035D01*
X87694882Y-60041644D01*
X87694883Y-60041559D01*
X87693825Y-60023624D01*
X87690737Y-59983421D01*
X87685858Y-59923687D01*
X87679432Y-59847158D01*
X87671700Y-59756569D01*
X87662905Y-59654657D01*
X87653287Y-59544159D01*
X87643091Y-59427811D01*
X87632556Y-59308348D01*
X87621926Y-59188507D01*
X87611442Y-59071025D01*
X87601346Y-58958637D01*
X87591881Y-58854081D01*
X87583288Y-58760091D01*
X87575809Y-58679405D01*
X87569687Y-58614759D01*
X87565162Y-58568888D01*
X87562478Y-58544530D01*
X87557067Y-58503732D01*
X87686253Y-58503732D01*
X87687908Y-58534653D01*
X87691549Y-58586653D01*
X87696995Y-58657487D01*
X87704063Y-58744911D01*
X87712570Y-58846681D01*
X87722335Y-58960552D01*
X87733174Y-59084279D01*
X87744907Y-59215618D01*
X87754079Y-59316908D01*
X87765566Y-59442526D01*
X87776322Y-59558762D01*
X87786131Y-59663380D01*
X87794781Y-59754140D01*
X87802057Y-59828804D01*
X87807746Y-59885134D01*
X87811634Y-59920891D01*
X87813506Y-59933837D01*
X87819188Y-59929826D01*
X87840020Y-59910138D01*
X87873872Y-59876322D01*
X87918412Y-59830837D01*
X87971310Y-59776146D01*
X88030236Y-59714710D01*
X88092858Y-59648990D01*
X88156848Y-59581449D01*
X88219874Y-59514547D01*
X88279606Y-59450746D01*
X88333713Y-59392507D01*
X88379865Y-59342292D01*
X88415733Y-59302563D01*
X88438984Y-59275780D01*
X88445778Y-59266477D01*
X88627601Y-59266477D01*
X88903305Y-59541968D01*
X88970726Y-59609224D01*
X89034267Y-59672162D01*
X89083490Y-59720100D01*
X89120196Y-59754594D01*
X89146190Y-59777199D01*
X89163276Y-59789471D01*
X89173256Y-59792966D01*
X89177935Y-59789238D01*
X89179116Y-59779844D01*
X89179873Y-59764749D01*
X89182601Y-59725883D01*
X89187108Y-59666895D01*
X89193179Y-59590473D01*
X89200596Y-59499305D01*
X89209142Y-59396080D01*
X89218602Y-59283483D01*
X89228758Y-59164205D01*
X89237723Y-59059077D01*
X89247066Y-58948351D01*
X89255443Y-58847814D01*
X89262653Y-58759943D01*
X89268496Y-58687215D01*
X89272769Y-58632110D01*
X89275273Y-58597104D01*
X89275805Y-58584674D01*
X89275384Y-58584908D01*
X89263509Y-58596350D01*
X89237130Y-58623198D01*
X89198570Y-58663018D01*
X89150153Y-58713372D01*
X89094203Y-58771828D01*
X89033042Y-58835948D01*
X88968995Y-58903298D01*
X88904385Y-58971443D01*
X88841535Y-59037948D01*
X88782768Y-59100377D01*
X88730409Y-59156295D01*
X88629533Y-59264406D01*
X88627601Y-59266477D01*
X88445778Y-59266477D01*
X88447290Y-59264406D01*
X88439148Y-59253383D01*
X88415478Y-59226999D01*
X88378478Y-59187527D01*
X88330350Y-59137191D01*
X88273296Y-59078217D01*
X88209520Y-59012830D01*
X88141222Y-58943255D01*
X88070605Y-58871716D01*
X87999871Y-58800438D01*
X87931222Y-58731647D01*
X87866861Y-58667566D01*
X87808989Y-58610422D01*
X87759810Y-58562439D01*
X87721524Y-58525841D01*
X87696334Y-58502854D01*
X87686442Y-58495703D01*
X87686253Y-58503732D01*
X87557067Y-58503732D01*
X87555390Y-58491089D01*
X87280297Y-58491089D01*
X87280140Y-58390495D01*
X87380891Y-58390495D01*
X87462624Y-58390495D01*
X87469895Y-58390489D01*
X87510950Y-58389613D01*
X87533277Y-58385867D01*
X87542529Y-58377270D01*
X87544357Y-58361840D01*
X87536306Y-58339159D01*
X87508730Y-58301428D01*
X87462624Y-58252179D01*
X87380891Y-58171172D01*
X87380891Y-58390495D01*
X87280140Y-58390495D01*
X87279968Y-58280471D01*
X87279639Y-58069852D01*
X86827914Y-57610891D01*
X86376189Y-57151931D01*
X86375570Y-57064848D01*
X86374951Y-56977767D01*
X86916769Y-57526952D01*
X86969137Y-57579998D01*
X87077803Y-57689772D01*
X87170709Y-57783114D01*
X87249055Y-57861173D01*
X87314043Y-57925097D01*
X87366872Y-57976035D01*
X87408743Y-58015135D01*
X87440855Y-58043548D01*
X87464410Y-58062420D01*
X87480608Y-58072901D01*
X87490649Y-58076139D01*
X87507579Y-58075158D01*
X87517084Y-58067996D01*
X87518723Y-58048401D01*
X87514782Y-58010124D01*
X87512065Y-57986025D01*
X87508284Y-57945744D01*
X87506760Y-57918961D01*
X87506015Y-57909728D01*
X87498746Y-57899839D01*
X87478668Y-57896562D01*
X87439689Y-57897992D01*
X87429737Y-57898553D01*
X87389898Y-57897921D01*
X87361560Y-57889167D01*
X87341586Y-57874951D01*
X87624852Y-57874951D01*
X87629013Y-57922104D01*
X87630935Y-57943498D01*
X87636924Y-58001909D01*
X87642826Y-58040381D01*
X87649727Y-58062912D01*
X87658712Y-58073498D01*
X87670870Y-58076139D01*
X87681801Y-58077937D01*
X87689050Y-58086530D01*
X87693100Y-58106505D01*
X87694863Y-58142450D01*
X87695248Y-58198952D01*
X87695248Y-58321766D01*
X87735447Y-58361840D01*
X87833565Y-58459654D01*
X87971881Y-58597542D01*
X87971881Y-58491089D01*
X88726337Y-58491089D01*
X88726337Y-58730000D01*
X88107831Y-58730000D01*
X88317592Y-58946906D01*
X88357770Y-58988334D01*
X88413328Y-59045200D01*
X88461570Y-59094082D01*
X88499971Y-59132441D01*
X88526003Y-59157741D01*
X88537140Y-59167442D01*
X88541373Y-59164767D01*
X88561224Y-59146782D01*
X88595451Y-59113481D01*
X88642227Y-59066712D01*
X88699724Y-59008325D01*
X88766112Y-58940169D01*
X88839564Y-58864094D01*
X88918251Y-58781950D01*
X88997341Y-58698943D01*
X89074871Y-58617136D01*
X89137746Y-58550083D01*
X89187502Y-58496007D01*
X89225678Y-58453129D01*
X89253811Y-58419673D01*
X89273440Y-58393861D01*
X89286101Y-58373914D01*
X89293334Y-58358056D01*
X89296675Y-58344509D01*
X89297561Y-58337910D01*
X89301488Y-58301548D01*
X89306459Y-58248018D01*
X89311927Y-58183421D01*
X89317344Y-58113862D01*
X89319181Y-58089635D01*
X89324488Y-58024178D01*
X89329548Y-57967717D01*
X89333863Y-57925618D01*
X89336934Y-57903243D01*
X89342955Y-57874951D01*
X87624852Y-57874951D01*
X87341586Y-57874951D01*
X87333630Y-57869289D01*
X87328820Y-57865104D01*
X87289482Y-57814427D01*
X87273903Y-57761782D01*
X87614698Y-57761782D01*
X89029221Y-57761782D01*
X89241881Y-57761782D01*
X89298908Y-57761782D01*
X89315993Y-57761662D01*
X89341308Y-57759462D01*
X89348616Y-57752334D01*
X89342943Y-57737508D01*
X89341267Y-57734682D01*
X89322448Y-57712944D01*
X89295183Y-57688820D01*
X89267987Y-57669254D01*
X89249371Y-57661188D01*
X89247697Y-57662463D01*
X89243544Y-57679976D01*
X89241881Y-57711485D01*
X89241881Y-57761782D01*
X89029221Y-57761782D01*
X89025526Y-57671095D01*
X89021832Y-57580407D01*
X88946386Y-57565252D01*
X88908551Y-57558379D01*
X88845368Y-57548756D01*
X88786065Y-57541496D01*
X88701188Y-57532893D01*
X88701188Y-57636040D01*
X88122773Y-57636040D01*
X88122773Y-57545122D01*
X88050471Y-57553753D01*
X87939998Y-57572249D01*
X87828816Y-57605691D01*
X87736850Y-57652324D01*
X87662542Y-57712786D01*
X87614698Y-57761782D01*
X87273903Y-57761782D01*
X87272172Y-57755934D01*
X87277474Y-57694575D01*
X87305975Y-57635297D01*
X87308733Y-57631606D01*
X87346822Y-57599851D01*
X87396476Y-57581067D01*
X87450002Y-57576071D01*
X87499707Y-57585678D01*
X87537900Y-57610704D01*
X87550831Y-57623480D01*
X87563428Y-57626576D01*
X87581467Y-57616998D01*
X87611928Y-57593082D01*
X87621274Y-57585731D01*
X87693430Y-57539339D01*
X87778915Y-57498084D01*
X87848830Y-57472575D01*
X88223367Y-57472575D01*
X88223367Y-57535446D01*
X88600594Y-57535446D01*
X88600594Y-57472575D01*
X88223367Y-57472575D01*
X87848830Y-57472575D01*
X87869767Y-57464936D01*
X87958027Y-57442868D01*
X88035736Y-57434852D01*
X88043991Y-57434788D01*
X88089879Y-57430321D01*
X88115079Y-57417795D01*
X88122773Y-57395784D01*
X88123676Y-57388849D01*
X88128615Y-57382885D01*
X88140611Y-57378519D01*
X88162680Y-57375503D01*
X88197836Y-57373590D01*
X88249094Y-57372530D01*
X88319471Y-57372077D01*
X88411980Y-57371980D01*
X88498660Y-57372150D01*
X88572332Y-57372834D01*
X88626265Y-57374215D01*
X88663288Y-57376470D01*
X88686230Y-57379778D01*
X88697920Y-57384320D01*
X88701188Y-57390272D01*
X88711937Y-57404888D01*
X88742055Y-57414215D01*
X88753582Y-57415847D01*
X88792886Y-57421591D01*
X88845188Y-57429378D01*
X88902376Y-57438003D01*
X88933916Y-57442393D01*
X88980074Y-57447148D01*
X89012641Y-57448295D01*
X89026023Y-57445495D01*
X89028308Y-57443671D01*
X89049405Y-57439165D01*
X89087355Y-57436029D01*
X89136048Y-57434852D01*
X89241881Y-57434852D01*
X89241894Y-57472575D01*
X89241894Y-57475718D01*
X89242388Y-57488668D01*
X89248819Y-57510411D01*
X89267123Y-57528851D01*
X89302830Y-57550801D01*
X89334174Y-57570854D01*
X89381893Y-57609356D01*
X89425138Y-57652579D01*
X89458219Y-57694627D01*
X89475442Y-57729604D01*
X89479662Y-57743081D01*
X89487480Y-57752334D01*
X89490116Y-57755454D01*
X89511662Y-57760696D01*
G37*
D11*
X89511662Y-57760696D02*
X89551314Y-57761782D01*
X89619109Y-57761782D01*
X89619109Y-57874951D01*
X89459577Y-57874951D01*
X89444682Y-58052732D01*
X89442682Y-58077037D01*
X89438023Y-58137880D01*
X89434731Y-58187389D01*
X89433092Y-58220992D01*
X89433390Y-58234116D01*
X89437724Y-58230343D01*
X89457496Y-58210676D01*
X89491679Y-58175818D01*
X89538541Y-58127576D01*
X89596354Y-58067757D01*
X89663387Y-57998167D01*
X89737912Y-57920615D01*
X89818197Y-57836907D01*
X89902513Y-57748849D01*
X89989130Y-57658250D01*
X90076319Y-57566915D01*
X90162349Y-57476653D01*
X90245492Y-57389269D01*
X90324016Y-57306572D01*
X90396192Y-57230368D01*
X90460291Y-57162463D01*
X90514583Y-57104666D01*
X90611592Y-57001040D01*
X90612034Y-57089315D01*
X90612475Y-57177589D01*
X90011938Y-57809158D01*
X89411401Y-58440726D01*
X89399396Y-58584674D01*
X89351365Y-59160635D01*
X89342876Y-59262791D01*
X89332343Y-59390612D01*
X89322621Y-59509767D01*
X89313898Y-59617914D01*
X89306358Y-59712713D01*
X89300187Y-59791819D01*
X89295573Y-59852892D01*
X89292700Y-59893590D01*
X89291754Y-59911570D01*
X89294251Y-59919808D01*
X89305471Y-59937599D01*
X89326751Y-59964411D01*
X89337021Y-59976129D01*
X89359225Y-60001466D01*
X89404023Y-60049986D01*
X89462281Y-60111192D01*
X89535129Y-60186307D01*
X89623703Y-60276550D01*
X89729134Y-60383145D01*
X89798492Y-60453093D01*
X89895179Y-60550658D01*
X89991526Y-60647941D01*
X90084638Y-60742014D01*
X90171618Y-60829950D01*
X90249569Y-60908820D01*
X90315596Y-60975699D01*
X90366802Y-61027658D01*
X90567514Y-61231620D01*
X90531058Y-61269671D01*
X90522460Y-61278245D01*
X90497095Y-61299297D01*
X90479695Y-61307723D01*
X90466071Y-61300530D01*
X90440743Y-61278944D01*
X90410379Y-61247995D01*
X90391896Y-61228448D01*
X90357427Y-61192752D01*
X90308712Y-61142684D01*
X90247469Y-61080001D01*
X90175420Y-61006457D01*
X90094285Y-60923810D01*
X90005784Y-60833815D01*
X89911637Y-60738228D01*
X89813565Y-60638805D01*
X89271161Y-60089343D01*
X89249066Y-60374746D01*
X89244250Y-60435662D01*
X89237216Y-60517548D01*
X89230872Y-60579569D01*
X89224748Y-60624987D01*
X89218373Y-60657062D01*
X89211277Y-60679052D01*
X89202991Y-60694219D01*
X89191393Y-60715416D01*
X89181850Y-60754386D01*
X89179010Y-60810531D01*
X89179010Y-60892773D01*
X88952674Y-60892773D01*
X88952674Y-60716733D01*
X88107082Y-60716733D01*
X88058203Y-60772262D01*
X88044836Y-60786722D01*
X87972388Y-60844813D01*
X87890532Y-60880576D01*
X87801900Y-60892773D01*
X87723692Y-60886306D01*
X87635233Y-60859047D01*
X87559507Y-60810328D01*
X87544748Y-60796403D01*
X87507864Y-60751328D01*
X87475503Y-60698819D01*
X87452297Y-60647061D01*
X87442879Y-60604239D01*
X87442697Y-60598023D01*
X87441342Y-60575246D01*
X87437800Y-60559513D01*
X87430390Y-60552068D01*
X87417431Y-60554156D01*
X87397243Y-60567020D01*
X87368145Y-60591905D01*
X87328456Y-60630053D01*
X87276496Y-60682710D01*
X87210584Y-60751119D01*
X87129040Y-60836524D01*
X87085604Y-60882112D01*
X87013000Y-60958441D01*
X86944309Y-61030808D01*
X86882223Y-61096366D01*
X86829434Y-61152274D01*
X86788634Y-61195686D01*
X86762515Y-61223758D01*
X86691119Y-61301436D01*
X86602863Y-61213416D01*
X87148690Y-60641287D01*
X87183105Y-60605188D01*
X87305546Y-60476272D01*
X87410651Y-60364754D01*
X87498736Y-60270288D01*
X87570116Y-60192529D01*
X87620588Y-60136174D01*
X87827247Y-60136174D01*
X87828872Y-60149434D01*
X87829156Y-60150819D01*
X87842698Y-60182228D01*
X87869748Y-60196863D01*
X87953129Y-60228063D01*
X88027418Y-60280038D01*
X88085846Y-60348791D01*
X88125890Y-60431315D01*
X88145026Y-60524606D01*
X88151364Y-60603565D01*
X89100838Y-60603565D01*
X89107458Y-60575273D01*
X89108629Y-60568329D01*
X89112268Y-60537281D01*
X89117234Y-60487081D01*
X89123157Y-60421727D01*
X89129669Y-60345219D01*
X89136401Y-60261555D01*
X89158724Y-59976129D01*
X88857826Y-59670565D01*
X88802636Y-59614704D01*
X88735109Y-59546888D01*
X88674529Y-59486643D01*
X88623021Y-59436052D01*
X88582710Y-59397200D01*
X88555722Y-59372170D01*
X88544182Y-59363046D01*
X88536444Y-59367405D01*
X88513395Y-59387241D01*
X88478709Y-59420375D01*
X88435487Y-59463820D01*
X88386832Y-59514587D01*
X88374140Y-59528051D01*
X88317229Y-59588275D01*
X88249414Y-59659864D01*
X88175800Y-59737437D01*
X88101493Y-59815611D01*
X88031599Y-59889005D01*
X88027401Y-59893409D01*
X87962420Y-59961785D01*
X87912836Y-60014732D01*
X87876688Y-60054767D01*
X87852016Y-60084411D01*
X87836858Y-60106181D01*
X87829256Y-60122595D01*
X87827247Y-60136174D01*
X87620588Y-60136174D01*
X87625105Y-60131131D01*
X87664019Y-60085748D01*
X87687173Y-60056035D01*
X87694882Y-60041644D01*
X87694883Y-60041559D01*
X87693825Y-60023624D01*
X87690737Y-59983421D01*
X87685858Y-59923687D01*
X87679432Y-59847158D01*
X87671700Y-59756569D01*
X87662905Y-59654657D01*
X87653287Y-59544159D01*
X87643091Y-59427811D01*
X87632556Y-59308348D01*
X87621926Y-59188507D01*
X87611442Y-59071025D01*
X87601346Y-58958637D01*
X87591881Y-58854081D01*
X87583288Y-58760091D01*
X87575809Y-58679405D01*
X87569687Y-58614759D01*
X87565162Y-58568888D01*
X87562478Y-58544530D01*
X87557067Y-58503732D01*
X87686253Y-58503732D01*
X87687908Y-58534653D01*
X87691549Y-58586653D01*
X87696995Y-58657487D01*
X87704063Y-58744911D01*
X87712570Y-58846681D01*
X87722335Y-58960552D01*
X87733174Y-59084279D01*
X87744907Y-59215618D01*
X87754079Y-59316908D01*
X87765566Y-59442526D01*
X87776322Y-59558762D01*
X87786131Y-59663380D01*
X87794781Y-59754140D01*
X87802057Y-59828804D01*
X87807746Y-59885134D01*
X87811634Y-59920891D01*
X87813506Y-59933837D01*
X87819188Y-59929826D01*
X87840020Y-59910138D01*
X87873872Y-59876322D01*
X87918412Y-59830837D01*
X87971310Y-59776146D01*
X88030236Y-59714710D01*
X88092858Y-59648990D01*
X88156848Y-59581449D01*
X88219874Y-59514547D01*
X88279606Y-59450746D01*
X88333713Y-59392507D01*
X88379865Y-59342292D01*
X88415733Y-59302563D01*
X88438984Y-59275780D01*
X88445778Y-59266477D01*
X88627601Y-59266477D01*
X88903305Y-59541968D01*
X88970726Y-59609224D01*
X89034267Y-59672162D01*
X89083490Y-59720100D01*
X89120196Y-59754594D01*
X89146190Y-59777199D01*
X89163276Y-59789471D01*
X89173256Y-59792966D01*
X89177935Y-59789238D01*
X89179116Y-59779844D01*
X89179873Y-59764749D01*
X89182601Y-59725883D01*
X89187108Y-59666895D01*
X89193179Y-59590473D01*
X89200596Y-59499305D01*
X89209142Y-59396080D01*
X89218602Y-59283483D01*
X89228758Y-59164205D01*
X89237723Y-59059077D01*
X89247066Y-58948351D01*
X89255443Y-58847814D01*
X89262653Y-58759943D01*
X89268496Y-58687215D01*
X89272769Y-58632110D01*
X89275273Y-58597104D01*
X89275805Y-58584674D01*
X89275384Y-58584908D01*
X89263509Y-58596350D01*
X89237130Y-58623198D01*
X89198570Y-58663018D01*
X89150153Y-58713372D01*
X89094203Y-58771828D01*
X89033042Y-58835948D01*
X88968995Y-58903298D01*
X88904385Y-58971443D01*
X88841535Y-59037948D01*
X88782768Y-59100377D01*
X88730409Y-59156295D01*
X88629533Y-59264406D01*
X88627601Y-59266477D01*
X88445778Y-59266477D01*
X88447290Y-59264406D01*
X88439148Y-59253383D01*
X88415478Y-59226999D01*
X88378478Y-59187527D01*
X88330350Y-59137191D01*
X88273296Y-59078217D01*
X88209520Y-59012830D01*
X88141222Y-58943255D01*
X88070605Y-58871716D01*
X87999871Y-58800438D01*
X87931222Y-58731647D01*
X87866861Y-58667566D01*
X87808989Y-58610422D01*
X87759810Y-58562439D01*
X87721524Y-58525841D01*
X87696334Y-58502854D01*
X87686442Y-58495703D01*
X87686253Y-58503732D01*
X87557067Y-58503732D01*
X87555390Y-58491089D01*
X87280297Y-58491089D01*
X87280140Y-58390495D01*
X87380891Y-58390495D01*
X87462624Y-58390495D01*
X87469895Y-58390489D01*
X87510950Y-58389613D01*
X87533277Y-58385867D01*
X87542529Y-58377270D01*
X87544357Y-58361840D01*
X87536306Y-58339159D01*
X87508730Y-58301428D01*
X87462624Y-58252179D01*
X87380891Y-58171172D01*
X87380891Y-58390495D01*
X87280140Y-58390495D01*
X87279968Y-58280471D01*
X87279639Y-58069852D01*
X86827914Y-57610891D01*
X86376189Y-57151931D01*
X86375570Y-57064848D01*
X86374951Y-56977767D01*
X86916769Y-57526952D01*
X86969137Y-57579998D01*
X87077803Y-57689772D01*
X87170709Y-57783114D01*
X87249055Y-57861173D01*
X87314043Y-57925097D01*
X87366872Y-57976035D01*
X87408743Y-58015135D01*
X87440855Y-58043548D01*
X87464410Y-58062420D01*
X87480608Y-58072901D01*
X87490649Y-58076139D01*
X87507579Y-58075158D01*
X87517084Y-58067996D01*
X87518723Y-58048401D01*
X87514782Y-58010124D01*
X87512065Y-57986025D01*
X87508284Y-57945744D01*
X87506760Y-57918961D01*
X87506015Y-57909728D01*
X87498746Y-57899839D01*
X87478668Y-57896562D01*
X87439689Y-57897992D01*
X87429737Y-57898553D01*
X87389898Y-57897921D01*
X87361560Y-57889167D01*
X87341586Y-57874951D01*
X87624852Y-57874951D01*
X87629013Y-57922104D01*
X87630935Y-57943498D01*
X87636924Y-58001909D01*
X87642826Y-58040381D01*
X87649727Y-58062912D01*
X87658712Y-58073498D01*
X87670870Y-58076139D01*
X87681801Y-58077937D01*
X87689050Y-58086530D01*
X87693100Y-58106505D01*
X87694863Y-58142450D01*
X87695248Y-58198952D01*
X87695248Y-58321766D01*
X87735447Y-58361840D01*
X87833565Y-58459654D01*
X87971881Y-58597542D01*
X87971881Y-58491089D01*
X88726337Y-58491089D01*
X88726337Y-58730000D01*
X88107831Y-58730000D01*
X88317592Y-58946906D01*
X88357770Y-58988334D01*
X88413328Y-59045200D01*
X88461570Y-59094082D01*
X88499971Y-59132441D01*
X88526003Y-59157741D01*
X88537140Y-59167442D01*
X88541373Y-59164767D01*
X88561224Y-59146782D01*
X88595451Y-59113481D01*
X88642227Y-59066712D01*
X88699724Y-59008325D01*
X88766112Y-58940169D01*
X88839564Y-58864094D01*
X88918251Y-58781950D01*
X88997341Y-58698943D01*
X89074871Y-58617136D01*
X89137746Y-58550083D01*
X89187502Y-58496007D01*
X89225678Y-58453129D01*
X89253811Y-58419673D01*
X89273440Y-58393861D01*
X89286101Y-58373914D01*
X89293334Y-58358056D01*
X89296675Y-58344509D01*
X89297561Y-58337910D01*
X89301488Y-58301548D01*
X89306459Y-58248018D01*
X89311927Y-58183421D01*
X89317344Y-58113862D01*
X89319181Y-58089635D01*
X89324488Y-58024178D01*
X89329548Y-57967717D01*
X89333863Y-57925618D01*
X89336934Y-57903243D01*
X89342955Y-57874951D01*
X87624852Y-57874951D01*
X87341586Y-57874951D01*
X87333630Y-57869289D01*
X87328820Y-57865104D01*
X87289482Y-57814427D01*
X87273903Y-57761782D01*
X87614698Y-57761782D01*
X89029221Y-57761782D01*
X89241881Y-57761782D01*
X89298908Y-57761782D01*
X89315993Y-57761662D01*
X89341308Y-57759462D01*
X89348616Y-57752334D01*
X89342943Y-57737508D01*
X89341267Y-57734682D01*
X89322448Y-57712944D01*
X89295183Y-57688820D01*
X89267987Y-57669254D01*
X89249371Y-57661188D01*
X89247697Y-57662463D01*
X89243544Y-57679976D01*
X89241881Y-57711485D01*
X89241881Y-57761782D01*
X89029221Y-57761782D01*
X89025526Y-57671095D01*
X89021832Y-57580407D01*
X88946386Y-57565252D01*
X88908551Y-57558379D01*
X88845368Y-57548756D01*
X88786065Y-57541496D01*
X88701188Y-57532893D01*
X88701188Y-57636040D01*
X88122773Y-57636040D01*
X88122773Y-57545122D01*
X88050471Y-57553753D01*
X87939998Y-57572249D01*
X87828816Y-57605691D01*
X87736850Y-57652324D01*
X87662542Y-57712786D01*
X87614698Y-57761782D01*
X87273903Y-57761782D01*
X87272172Y-57755934D01*
X87277474Y-57694575D01*
X87305975Y-57635297D01*
X87308733Y-57631606D01*
X87346822Y-57599851D01*
X87396476Y-57581067D01*
X87450002Y-57576071D01*
X87499707Y-57585678D01*
X87537900Y-57610704D01*
X87550831Y-57623480D01*
X87563428Y-57626576D01*
X87581467Y-57616998D01*
X87611928Y-57593082D01*
X87621274Y-57585731D01*
X87693430Y-57539339D01*
X87778915Y-57498084D01*
X87848830Y-57472575D01*
X88223367Y-57472575D01*
X88223367Y-57535446D01*
X88600594Y-57535446D01*
X88600594Y-57472575D01*
X88223367Y-57472575D01*
X87848830Y-57472575D01*
X87869767Y-57464936D01*
X87958027Y-57442868D01*
X88035736Y-57434852D01*
X88043991Y-57434788D01*
X88089879Y-57430321D01*
X88115079Y-57417795D01*
X88122773Y-57395784D01*
X88123676Y-57388849D01*
X88128615Y-57382885D01*
X88140611Y-57378519D01*
X88162680Y-57375503D01*
X88197836Y-57373590D01*
X88249094Y-57372530D01*
X88319471Y-57372077D01*
X88411980Y-57371980D01*
X88498660Y-57372150D01*
X88572332Y-57372834D01*
X88626265Y-57374215D01*
X88663288Y-57376470D01*
X88686230Y-57379778D01*
X88697920Y-57384320D01*
X88701188Y-57390272D01*
X88711937Y-57404888D01*
X88742055Y-57414215D01*
X88753582Y-57415847D01*
X88792886Y-57421591D01*
X88845188Y-57429378D01*
X88902376Y-57438003D01*
X88933916Y-57442393D01*
X88980074Y-57447148D01*
X89012641Y-57448295D01*
X89026023Y-57445495D01*
X89028308Y-57443671D01*
X89049405Y-57439165D01*
X89087355Y-57436029D01*
X89136048Y-57434852D01*
X89241881Y-57434852D01*
X89241894Y-57472575D01*
X89241894Y-57475718D01*
X89242388Y-57488668D01*
X89248819Y-57510411D01*
X89267123Y-57528851D01*
X89302830Y-57550801D01*
X89334174Y-57570854D01*
X89381893Y-57609356D01*
X89425138Y-57652579D01*
X89458219Y-57694627D01*
X89475442Y-57729604D01*
X89479662Y-57743081D01*
X89487480Y-57752334D01*
X89490116Y-57755454D01*
X89511662Y-57760696D01*
G36*
X90272971Y-63017822D02*
G01*
X86752178Y-63017822D01*
X86752178Y-62150198D01*
X90272971Y-62150198D01*
X90272971Y-63017822D01*
G37*
X90272971Y-63017822D02*
X86752178Y-63017822D01*
X86752178Y-62150198D01*
X90272971Y-62150198D01*
X90272971Y-63017822D01*
M02*
