%TF.GenerationSoftware,KiCad,Pcbnew,6.0.11+dfsg-1~bpo11+1*%
%TF.CreationDate,2023-05-06T05:54:02+00:00*%
%TF.ProjectId,huibike,68756962-696b-4652-9e6b-696361645f70,rev?*%
%TF.SameCoordinates,Original*%
%TF.FileFunction,Copper,L1,Top*%
%TF.FilePolarity,Positive*%
%FSLAX46Y46*%
G04 Gerber Fmt 4.6, Leading zero omitted, Abs format (unit mm)*
G04 Created by KiCad (PCBNEW 6.0.11+dfsg-1~bpo11+1) date 2023-05-06 05:54:02*
%MOMM*%
%LPD*%
G01*
G04 APERTURE LIST*
G04 Aperture macros list*
%AMRoundRect*
0 Rectangle with rounded corners*
0 $1 Rounding radius*
0 $2 $3 $4 $5 $6 $7 $8 $9 X,Y pos of 4 corners*
0 Add a 4 corners polygon primitive as box body*
4,1,4,$2,$3,$4,$5,$6,$7,$8,$9,$2,$3,0*
0 Add four circle primitives for the rounded corners*
1,1,$1+$1,$2,$3*
1,1,$1+$1,$4,$5*
1,1,$1+$1,$6,$7*
1,1,$1+$1,$8,$9*
0 Add four rect primitives between the rounded corners*
20,1,$1+$1,$2,$3,$4,$5,0*
20,1,$1+$1,$4,$5,$6,$7,0*
20,1,$1+$1,$6,$7,$8,$9,0*
20,1,$1+$1,$8,$9,$2,$3,0*%
G04 Aperture macros list end*
%TA.AperFunction,SMDPad,CuDef*%
%ADD10RoundRect,0.140000X0.170000X-0.140000X0.170000X0.140000X-0.170000X0.140000X-0.170000X-0.140000X0*%
%TD*%
%TA.AperFunction,SMDPad,CuDef*%
%ADD11RoundRect,0.150000X-0.587500X-0.150000X0.587500X-0.150000X0.587500X0.150000X-0.587500X0.150000X0*%
%TD*%
%TA.AperFunction,SMDPad,CuDef*%
%ADD12R,1.000000X1.500000*%
%TD*%
%TA.AperFunction,SMDPad,CuDef*%
%ADD13RoundRect,0.250000X-0.250000X-0.475000X0.250000X-0.475000X0.250000X0.475000X-0.250000X0.475000X0*%
%TD*%
%TA.AperFunction,SMDPad,CuDef*%
%ADD14RoundRect,0.135000X-0.135000X-0.185000X0.135000X-0.185000X0.135000X0.185000X-0.135000X0.185000X0*%
%TD*%
%TA.AperFunction,ComponentPad*%
%ADD15R,1.700000X1.700000*%
%TD*%
%TA.AperFunction,ComponentPad*%
%ADD16O,1.700000X1.700000*%
%TD*%
%TA.AperFunction,SMDPad,CuDef*%
%ADD17RoundRect,0.135000X0.185000X-0.135000X0.185000X0.135000X-0.185000X0.135000X-0.185000X-0.135000X0*%
%TD*%
%TA.AperFunction,SMDPad,CuDef*%
%ADD18R,1.700000X1.300000*%
%TD*%
%TA.AperFunction,SMDPad,CuDef*%
%ADD19R,1.200000X2.200000*%
%TD*%
%TA.AperFunction,SMDPad,CuDef*%
%ADD20R,5.800000X6.400000*%
%TD*%
%TA.AperFunction,SMDPad,CuDef*%
%ADD21RoundRect,0.150000X-0.512500X-0.150000X0.512500X-0.150000X0.512500X0.150000X-0.512500X0.150000X0*%
%TD*%
%TA.AperFunction,SMDPad,CuDef*%
%ADD22RoundRect,0.250000X-0.475000X0.250000X-0.475000X-0.250000X0.475000X-0.250000X0.475000X0.250000X0*%
%TD*%
%TA.AperFunction,ViaPad*%
%ADD23C,0.800000*%
%TD*%
%TA.AperFunction,Conductor*%
%ADD24C,0.500000*%
%TD*%
%TA.AperFunction,Conductor*%
%ADD25C,0.250000*%
%TD*%
G04 APERTURE END LIST*
D10*
%TO.P,C104,1*%
%TO.N,/~{RST}*%
X104000000Y-54480000D03*
%TO.P,C104,2*%
%TO.N,GND*%
X104000000Y-53520000D03*
%TD*%
D11*
%TO.P,Q101,1,B*%
%TO.N,/TACHO_OUT*%
X100062500Y-60050000D03*
%TO.P,Q101,2,E*%
%TO.N,GND*%
X100062500Y-61950000D03*
%TO.P,Q101,3,C*%
%TO.N,Net-(J101-Pad4)*%
X101937500Y-61000000D03*
%TD*%
D12*
%TO.P,JP101,1,A*%
%TO.N,GND*%
X100850000Y-53500000D03*
%TO.P,JP101,2,B*%
%TO.N,/~{RST}*%
X102150000Y-53500000D03*
%TD*%
D13*
%TO.P,C101,1*%
%TO.N,+36V*%
X88050000Y-64000000D03*
%TO.P,C101,2*%
%TO.N,GND*%
X89950000Y-64000000D03*
%TD*%
D14*
%TO.P,R105,1*%
%TO.N,Net-(J101-Pad3)*%
X94740000Y-58000000D03*
%TO.P,R105,2*%
%TO.N,/TACHO_IN*%
X95760000Y-58000000D03*
%TD*%
D15*
%TO.P,J101,1,Pin_1*%
%TO.N,+36V*%
X84000000Y-64350000D03*
D16*
%TO.P,J101,2,Pin_2*%
%TO.N,Net-(J101-Pad2)*%
X84000000Y-61810000D03*
%TO.P,J101,3,Pin_3*%
%TO.N,Net-(J101-Pad3)*%
X84000000Y-59270000D03*
%TO.P,J101,4,Pin_4*%
%TO.N,Net-(J101-Pad4)*%
X84000000Y-56730000D03*
%TO.P,J101,5,Pin_5*%
%TO.N,/~{RST}*%
X84000000Y-54190000D03*
%TO.P,J101,6,Pin_6*%
%TO.N,GND*%
X84000000Y-51650000D03*
%TD*%
D17*
%TO.P,R101,1*%
%TO.N,+5V*%
X104000000Y-57000000D03*
%TO.P,R101,2*%
%TO.N,/~{RST}*%
X104000000Y-55980000D03*
%TD*%
D14*
%TO.P,R102,1*%
%TO.N,/CTRL*%
X103740000Y-59500000D03*
%TO.P,R102,2*%
%TO.N,GND*%
X104760000Y-59500000D03*
%TD*%
D18*
%TO.P,D101,1,K*%
%TO.N,/CTRL*%
X104250000Y-61250000D03*
%TO.P,D101,2,A*%
%TO.N,GND*%
X104250000Y-64750000D03*
%TD*%
%TO.P,D102,1,K*%
%TO.N,/TACHO_IN*%
X95250000Y-56250000D03*
%TO.P,D102,2,A*%
%TO.N,GND*%
X95250000Y-52750000D03*
%TD*%
D10*
%TO.P,C102,1*%
%TO.N,+5V*%
X97000000Y-58000000D03*
%TO.P,C102,2*%
%TO.N,GND*%
X97000000Y-57040000D03*
%TD*%
D17*
%TO.P,R104,1*%
%TO.N,/TACHO_IN*%
X97000000Y-55760000D03*
%TO.P,R104,2*%
%TO.N,GND*%
X97000000Y-54740000D03*
%TD*%
D19*
%TO.P,U102,1,VI*%
%TO.N,+36V*%
X87970000Y-61450000D03*
D20*
%TO.P,U102,2,GND*%
%TO.N,GND*%
X90250000Y-55150000D03*
D19*
%TO.P,U102,3,VO*%
%TO.N,+5V*%
X92530000Y-61450000D03*
%TD*%
D17*
%TO.P,R106,1*%
%TO.N,+36V*%
X86500000Y-64510000D03*
%TO.P,R106,2*%
%TO.N,Net-(J101-Pad4)*%
X86500000Y-63490000D03*
%TD*%
D21*
%TO.P,U101,1,PB0*%
%TO.N,/TACHO_IN*%
X100112500Y-56050000D03*
%TO.P,U101,2,GND*%
%TO.N,GND*%
X100112500Y-57000000D03*
%TO.P,U101,3,PB1*%
%TO.N,/TACHO_OUT*%
X100112500Y-57950000D03*
%TO.P,U101,4,PB2*%
%TO.N,/CTRL*%
X102387500Y-57950000D03*
%TO.P,U101,5,VCC*%
%TO.N,+5V*%
X102387500Y-57000000D03*
%TO.P,U101,6,~{RESET}/PB3*%
%TO.N,/~{RST}*%
X102387500Y-56050000D03*
%TD*%
D14*
%TO.P,R103,1*%
%TO.N,Net-(J101-Pad2)*%
X101240000Y-64750000D03*
%TO.P,R103,2*%
%TO.N,/CTRL*%
X102260000Y-64750000D03*
%TD*%
D22*
%TO.P,C103,1*%
%TO.N,+5V*%
X97000000Y-60050000D03*
%TO.P,C103,2*%
%TO.N,GND*%
X97000000Y-61950000D03*
%TD*%
D23*
%TO.N,GND*%
X97250000Y-53000000D03*
X98500000Y-59500000D03*
X98000000Y-64000000D03*
X102500000Y-59500000D03*
X104750000Y-63500000D03*
X98500000Y-56500000D03*
%TO.N,+5V*%
X98000000Y-58000000D03*
X104000000Y-58000000D03*
%TO.N,Net-(J101-Pad2)*%
X100000000Y-64750000D03*
%TO.N,Net-(J101-Pad4)*%
X100500000Y-61000000D03*
%TD*%
D24*
%TO.N,+36V*%
X86500000Y-64510000D02*
X84160000Y-64510000D01*
X87850000Y-61300000D02*
X87850000Y-63800000D01*
X86500000Y-64510000D02*
X87540000Y-64510000D01*
X87540000Y-64510000D02*
X88050000Y-64000000D01*
X87850000Y-63800000D02*
X88050000Y-64000000D01*
X84160000Y-64510000D02*
X84000000Y-64350000D01*
%TO.N,+5V*%
X97000000Y-60050000D02*
X97000000Y-58000000D01*
X97000000Y-60050000D02*
X95200000Y-60050000D01*
X92530000Y-61450000D02*
X93800000Y-61450000D01*
X93800000Y-61450000D02*
X95200000Y-60050000D01*
X97000000Y-58000000D02*
X98000000Y-58000000D01*
X104000000Y-58000000D02*
X104000000Y-57000000D01*
X104000000Y-57000000D02*
X102275000Y-57000000D01*
D25*
%TO.N,/~{RST}*%
X104000000Y-54480000D02*
X104000000Y-55980000D01*
X104000000Y-54480000D02*
X103130000Y-54480000D01*
X86565000Y-51625000D02*
X100875000Y-51625000D01*
X84000000Y-54190000D02*
X86565000Y-51625000D01*
X102150000Y-52900000D02*
X102150000Y-53500000D01*
X103930000Y-56050000D02*
X104000000Y-55980000D01*
X100875000Y-51625000D02*
X102150000Y-52900000D01*
X103130000Y-54480000D02*
X102150000Y-53500000D01*
X102275000Y-56050000D02*
X103930000Y-56050000D01*
%TO.N,/TACHO_IN*%
X95760000Y-58000000D02*
X95760000Y-56760000D01*
X99822500Y-55760000D02*
X100112500Y-56050000D01*
X96510000Y-56250000D02*
X97000000Y-55760000D01*
X97000000Y-55760000D02*
X99822500Y-55760000D01*
X95250000Y-56250000D02*
X96510000Y-56250000D01*
X95760000Y-56760000D02*
X95250000Y-56250000D01*
%TO.N,Net-(J101-Pad2)*%
X100000000Y-64750000D02*
X101240000Y-64750000D01*
%TO.N,/TACHO_OUT*%
X100000000Y-59987500D02*
X100062500Y-60050000D01*
X100000000Y-57950000D02*
X100000000Y-59987500D01*
%TO.N,/CTRL*%
X103750000Y-61250000D02*
X104250000Y-61250000D01*
X102275000Y-58035000D02*
X103740000Y-59500000D01*
X103740000Y-60740000D02*
X104250000Y-61250000D01*
X102250000Y-64740000D02*
X102250000Y-62750000D01*
X102250000Y-62750000D02*
X103750000Y-61250000D01*
X103740000Y-59500000D02*
X103740000Y-60740000D01*
X102260000Y-64750000D02*
X102250000Y-64740000D01*
%TO.N,Net-(J101-Pad3)*%
X93470000Y-59270000D02*
X94740000Y-58000000D01*
X84000000Y-59270000D02*
X93470000Y-59270000D01*
%TO.N,Net-(J101-Pad4)*%
X86500000Y-62648299D02*
X86500000Y-63490000D01*
X82825000Y-57905000D02*
X82825000Y-59825000D01*
X83635000Y-60635000D02*
X84486701Y-60635000D01*
X100500000Y-61000000D02*
X101937500Y-61000000D01*
X82825000Y-59825000D02*
X83635000Y-60635000D01*
X84486701Y-60635000D02*
X86500000Y-62648299D01*
X84000000Y-56730000D02*
X82825000Y-57905000D01*
%TD*%
%TA.AperFunction,Conductor*%
%TO.N,GND*%
G36*
X105454446Y-62388888D02*
G01*
X105488576Y-62451143D01*
X105491500Y-62478132D01*
X105491500Y-65365500D01*
X105471498Y-65433621D01*
X105417842Y-65480114D01*
X105365500Y-65491500D01*
X103034400Y-65491500D01*
X102966279Y-65471498D01*
X102919786Y-65417842D01*
X102909682Y-65347568D01*
X102925946Y-65301361D01*
X102986234Y-65199419D01*
X102986234Y-65199418D01*
X102990269Y-65192596D01*
X102998957Y-65162694D01*
X103024876Y-65073478D01*
X103035629Y-65036466D01*
X103038500Y-64999989D01*
X103038499Y-64500012D01*
X103035629Y-64463534D01*
X102990269Y-64307404D01*
X102934472Y-64213056D01*
X102911541Y-64174281D01*
X102911539Y-64174278D01*
X102907506Y-64167459D01*
X102907965Y-64167187D01*
X102883994Y-64106134D01*
X102883500Y-64094992D01*
X102883500Y-63064594D01*
X102903502Y-62996473D01*
X102920405Y-62975499D01*
X103450499Y-62445405D01*
X103512811Y-62411379D01*
X103539594Y-62408500D01*
X105148134Y-62408500D01*
X105210316Y-62401745D01*
X105321271Y-62360150D01*
X105392077Y-62354967D01*
X105454446Y-62388888D01*
G37*
%TD.AperFunction*%
%TA.AperFunction,Conductor*%
G36*
X98993271Y-58384465D02*
G01*
X99023835Y-58419367D01*
X99075547Y-58506807D01*
X99193193Y-58624453D01*
X99200017Y-58628489D01*
X99200020Y-58628491D01*
X99304639Y-58690362D01*
X99353092Y-58742254D01*
X99366500Y-58798815D01*
X99366500Y-59151190D01*
X99346498Y-59219311D01*
X99292842Y-59265804D01*
X99275654Y-59272187D01*
X99247354Y-59280409D01*
X99211399Y-59290855D01*
X99194008Y-59301140D01*
X99075020Y-59371509D01*
X99075017Y-59371511D01*
X99068193Y-59375547D01*
X98950547Y-59493193D01*
X98946511Y-59500017D01*
X98946509Y-59500020D01*
X98898912Y-59580502D01*
X98865855Y-59636399D01*
X98863644Y-59644010D01*
X98863643Y-59644012D01*
X98856210Y-59669597D01*
X98819438Y-59796169D01*
X98818934Y-59802574D01*
X98818933Y-59802579D01*
X98816693Y-59831042D01*
X98816500Y-59833498D01*
X98816500Y-60266502D01*
X98819438Y-60303831D01*
X98865855Y-60463601D01*
X98869892Y-60470427D01*
X98946509Y-60599980D01*
X98946511Y-60599983D01*
X98950547Y-60606807D01*
X99068193Y-60724453D01*
X99075017Y-60728489D01*
X99075020Y-60728491D01*
X99182589Y-60792107D01*
X99211399Y-60809145D01*
X99219010Y-60811356D01*
X99219012Y-60811357D01*
X99271231Y-60826528D01*
X99371169Y-60855562D01*
X99377574Y-60856066D01*
X99377579Y-60856067D01*
X99406042Y-60858307D01*
X99406050Y-60858307D01*
X99408498Y-60858500D01*
X99461431Y-60858500D01*
X99529552Y-60878502D01*
X99576045Y-60932158D01*
X99584970Y-60986830D01*
X99587186Y-60986830D01*
X99587186Y-60993435D01*
X99586496Y-61000000D01*
X99587186Y-61006565D01*
X99592645Y-61058500D01*
X99606458Y-61189928D01*
X99665473Y-61371556D01*
X99760960Y-61536944D01*
X99765378Y-61541851D01*
X99765379Y-61541852D01*
X99884325Y-61673955D01*
X99888747Y-61678866D01*
X99960811Y-61731224D01*
X100023397Y-61776695D01*
X100043248Y-61791118D01*
X100049276Y-61793802D01*
X100049278Y-61793803D01*
X100084995Y-61809705D01*
X100217712Y-61868794D01*
X100311112Y-61888647D01*
X100398056Y-61907128D01*
X100398061Y-61907128D01*
X100404513Y-61908500D01*
X100595487Y-61908500D01*
X100601939Y-61907128D01*
X100601944Y-61907128D01*
X100688888Y-61888647D01*
X100782288Y-61868794D01*
X100915005Y-61809705D01*
X100950724Y-61793802D01*
X100950725Y-61793801D01*
X100956752Y-61791118D01*
X100962094Y-61787237D01*
X100962096Y-61787236D01*
X100975517Y-61777485D01*
X101042384Y-61753626D01*
X101085764Y-61761331D01*
X101086399Y-61759145D01*
X101246169Y-61805562D01*
X101252574Y-61806066D01*
X101252579Y-61806067D01*
X101281042Y-61808307D01*
X101281050Y-61808307D01*
X101283498Y-61808500D01*
X101991405Y-61808500D01*
X102059526Y-61828502D01*
X102106019Y-61882158D01*
X102116123Y-61952432D01*
X102086629Y-62017012D01*
X102080500Y-62023595D01*
X101857747Y-62246348D01*
X101849461Y-62253888D01*
X101842982Y-62258000D01*
X101837557Y-62263777D01*
X101796357Y-62307651D01*
X101793602Y-62310493D01*
X101773865Y-62330230D01*
X101771385Y-62333427D01*
X101763682Y-62342447D01*
X101733414Y-62374679D01*
X101729595Y-62381625D01*
X101729593Y-62381628D01*
X101723652Y-62392434D01*
X101712801Y-62408953D01*
X101700386Y-62424959D01*
X101697241Y-62432228D01*
X101697238Y-62432232D01*
X101682826Y-62465537D01*
X101677609Y-62476187D01*
X101656305Y-62514940D01*
X101654334Y-62522615D01*
X101654334Y-62522616D01*
X101651267Y-62534562D01*
X101644863Y-62553266D01*
X101636819Y-62571855D01*
X101635580Y-62579678D01*
X101635577Y-62579688D01*
X101629901Y-62615524D01*
X101627495Y-62627144D01*
X101618979Y-62660316D01*
X101616500Y-62669970D01*
X101616500Y-62690224D01*
X101614949Y-62709934D01*
X101611780Y-62729943D01*
X101612526Y-62737835D01*
X101615941Y-62773961D01*
X101616500Y-62785819D01*
X101616500Y-63799516D01*
X101596498Y-63867637D01*
X101542842Y-63914130D01*
X101476623Y-63922378D01*
X101476466Y-63924371D01*
X101442444Y-63921693D01*
X101442438Y-63921693D01*
X101439989Y-63921500D01*
X101240122Y-63921500D01*
X101040012Y-63921501D01*
X101003534Y-63924371D01*
X100906730Y-63952495D01*
X100855017Y-63967519D01*
X100855015Y-63967520D01*
X100847404Y-63969731D01*
X100840582Y-63973766D01*
X100840581Y-63973766D01*
X100711520Y-64050092D01*
X100642704Y-64067551D01*
X100573320Y-64043574D01*
X100462094Y-63962763D01*
X100462093Y-63962762D01*
X100456752Y-63958882D01*
X100450724Y-63956198D01*
X100450722Y-63956197D01*
X100288319Y-63883891D01*
X100288318Y-63883891D01*
X100282288Y-63881206D01*
X100188887Y-63861353D01*
X100101944Y-63842872D01*
X100101939Y-63842872D01*
X100095487Y-63841500D01*
X99904513Y-63841500D01*
X99898061Y-63842872D01*
X99898056Y-63842872D01*
X99811113Y-63861353D01*
X99717712Y-63881206D01*
X99711682Y-63883891D01*
X99711681Y-63883891D01*
X99549278Y-63956197D01*
X99549276Y-63956198D01*
X99543248Y-63958882D01*
X99537907Y-63962762D01*
X99537906Y-63962763D01*
X99522762Y-63973766D01*
X99388747Y-64071134D01*
X99384326Y-64076044D01*
X99384325Y-64076045D01*
X99302261Y-64167187D01*
X99260960Y-64213056D01*
X99165473Y-64378444D01*
X99106458Y-64560072D01*
X99086496Y-64750000D01*
X99106458Y-64939928D01*
X99165473Y-65121556D01*
X99168776Y-65127278D01*
X99168777Y-65127279D01*
X99202093Y-65184983D01*
X99260960Y-65286944D01*
X99265126Y-65291571D01*
X99288938Y-65358307D01*
X99272857Y-65427459D01*
X99221943Y-65476939D01*
X99163143Y-65491500D01*
X87775536Y-65491500D01*
X87707415Y-65471498D01*
X87660922Y-65417842D01*
X87650818Y-65347568D01*
X87680312Y-65282988D01*
X87732543Y-65247062D01*
X87749072Y-65241062D01*
X87792065Y-65233500D01*
X88350400Y-65233500D01*
X88353646Y-65233163D01*
X88353650Y-65233163D01*
X88449308Y-65223238D01*
X88449312Y-65223237D01*
X88456166Y-65222526D01*
X88462702Y-65220345D01*
X88462704Y-65220345D01*
X88616998Y-65168868D01*
X88623946Y-65166550D01*
X88774348Y-65073478D01*
X88899305Y-64948303D01*
X88903146Y-64942072D01*
X88988275Y-64803968D01*
X88988276Y-64803966D01*
X88992115Y-64797738D01*
X89047797Y-64629861D01*
X89058500Y-64525400D01*
X89058500Y-63474600D01*
X89055789Y-63448469D01*
X89048238Y-63375692D01*
X89048237Y-63375688D01*
X89047526Y-63368834D01*
X89021229Y-63290011D01*
X88993868Y-63208002D01*
X88991550Y-63201054D01*
X88956194Y-63143919D01*
X88911071Y-63071001D01*
X88892233Y-63002549D01*
X88913394Y-62934779D01*
X88927499Y-62917579D01*
X88933261Y-62913261D01*
X89020615Y-62796705D01*
X89071745Y-62660316D01*
X89078500Y-62598134D01*
X89078500Y-60301866D01*
X89071745Y-60239684D01*
X89031384Y-60132022D01*
X89023765Y-60111697D01*
X89023764Y-60111696D01*
X89020615Y-60103295D01*
X89015233Y-60096114D01*
X89011891Y-60090010D01*
X88996721Y-60020653D01*
X89021457Y-59954105D01*
X89078244Y-59911494D01*
X89122410Y-59903500D01*
X91377590Y-59903500D01*
X91445711Y-59923502D01*
X91492204Y-59977158D01*
X91502308Y-60047432D01*
X91488109Y-60090010D01*
X91484767Y-60096114D01*
X91479385Y-60103295D01*
X91476236Y-60111696D01*
X91476235Y-60111697D01*
X91468616Y-60132022D01*
X91428255Y-60239684D01*
X91421500Y-60301866D01*
X91421500Y-62598134D01*
X91428255Y-62660316D01*
X91479385Y-62796705D01*
X91566739Y-62913261D01*
X91683295Y-63000615D01*
X91819684Y-63051745D01*
X91881866Y-63058500D01*
X93178134Y-63058500D01*
X93240316Y-63051745D01*
X93376705Y-63000615D01*
X93493261Y-62913261D01*
X93580615Y-62796705D01*
X93631745Y-62660316D01*
X93638500Y-62598134D01*
X93638500Y-62338119D01*
X93658502Y-62269998D01*
X93712158Y-62223505D01*
X93767968Y-62212380D01*
X93773349Y-62213199D01*
X93780640Y-62212606D01*
X93780642Y-62212606D01*
X93826018Y-62208915D01*
X93836233Y-62208500D01*
X93844293Y-62208500D01*
X93857583Y-62206951D01*
X93872507Y-62205211D01*
X93876882Y-62204778D01*
X93942339Y-62199454D01*
X93942342Y-62199453D01*
X93949637Y-62198860D01*
X93956601Y-62196604D01*
X93962560Y-62195413D01*
X93968415Y-62194029D01*
X93975681Y-62193182D01*
X94044327Y-62168265D01*
X94048455Y-62166848D01*
X94110936Y-62146607D01*
X94110938Y-62146606D01*
X94117899Y-62144351D01*
X94124154Y-62140555D01*
X94129628Y-62138049D01*
X94135058Y-62135330D01*
X94141937Y-62132833D01*
X94202976Y-62092814D01*
X94206680Y-62090477D01*
X94269107Y-62052595D01*
X94277484Y-62045197D01*
X94277508Y-62045224D01*
X94280500Y-62042571D01*
X94283733Y-62039868D01*
X94289852Y-62035856D01*
X94343128Y-61979617D01*
X94345506Y-61977175D01*
X95477276Y-60845405D01*
X95539588Y-60811379D01*
X95566371Y-60808500D01*
X95908607Y-60808500D01*
X95976728Y-60828502D01*
X95997625Y-60845327D01*
X96051697Y-60899305D01*
X96057927Y-60903145D01*
X96057928Y-60903146D01*
X96195090Y-60987694D01*
X96202262Y-60992115D01*
X96226035Y-61000000D01*
X96363611Y-61045632D01*
X96363613Y-61045632D01*
X96370139Y-61047797D01*
X96376975Y-61048497D01*
X96376978Y-61048498D01*
X96420031Y-61052909D01*
X96474600Y-61058500D01*
X97525400Y-61058500D01*
X97528646Y-61058163D01*
X97528650Y-61058163D01*
X97624308Y-61048238D01*
X97624312Y-61048237D01*
X97631166Y-61047526D01*
X97637702Y-61045345D01*
X97637704Y-61045345D01*
X97773618Y-61000000D01*
X97798946Y-60991550D01*
X97949348Y-60898478D01*
X98074305Y-60773303D01*
X98114192Y-60708595D01*
X98163275Y-60628968D01*
X98163276Y-60628966D01*
X98167115Y-60622738D01*
X98222797Y-60454861D01*
X98233500Y-60350400D01*
X98233500Y-59749600D01*
X98231401Y-59729366D01*
X98223238Y-59650692D01*
X98223237Y-59650688D01*
X98222526Y-59643834D01*
X98220046Y-59636399D01*
X98168868Y-59483002D01*
X98166550Y-59476054D01*
X98073478Y-59325652D01*
X98057111Y-59309313D01*
X97953483Y-59205866D01*
X97948303Y-59200695D01*
X97852693Y-59141760D01*
X97805200Y-59088988D01*
X97793776Y-59018916D01*
X97822050Y-58953792D01*
X97881044Y-58914293D01*
X97918809Y-58908500D01*
X98095487Y-58908500D01*
X98101939Y-58907128D01*
X98101944Y-58907128D01*
X98188887Y-58888647D01*
X98282288Y-58868794D01*
X98346925Y-58840016D01*
X98450722Y-58793803D01*
X98450724Y-58793802D01*
X98456752Y-58791118D01*
X98471685Y-58780269D01*
X98567249Y-58710837D01*
X98611253Y-58678866D01*
X98615675Y-58673955D01*
X98734621Y-58541852D01*
X98734622Y-58541851D01*
X98739040Y-58536944D01*
X98806265Y-58420507D01*
X98857646Y-58371515D01*
X98927360Y-58358079D01*
X98993271Y-58384465D01*
G37*
%TD.AperFunction*%
%TA.AperFunction,Conductor*%
G36*
X101340609Y-58493582D02*
G01*
X101347276Y-58501276D01*
X101350547Y-58506807D01*
X101468193Y-58624453D01*
X101475017Y-58628489D01*
X101475020Y-58628491D01*
X101488563Y-58636500D01*
X101611399Y-58709145D01*
X101619010Y-58711356D01*
X101619012Y-58711357D01*
X101671231Y-58726528D01*
X101771169Y-58755562D01*
X101777574Y-58756066D01*
X101777579Y-58756067D01*
X101806042Y-58758307D01*
X101806050Y-58758307D01*
X101808498Y-58758500D01*
X102050405Y-58758500D01*
X102118526Y-58778502D01*
X102139501Y-58795405D01*
X102924597Y-59580502D01*
X102958622Y-59642814D01*
X102961501Y-59669597D01*
X102961501Y-59749988D01*
X102964371Y-59786466D01*
X102984578Y-59856018D01*
X103002155Y-59916518D01*
X103009731Y-59942596D01*
X103013766Y-59949419D01*
X103013767Y-59949421D01*
X103081059Y-60063205D01*
X103098519Y-60132022D01*
X103076002Y-60199353D01*
X103048172Y-60228170D01*
X103043921Y-60231356D01*
X103043919Y-60231358D01*
X103036739Y-60236739D01*
X103026136Y-60250887D01*
X102969277Y-60293400D01*
X102898458Y-60298425D01*
X102861175Y-60283775D01*
X102788601Y-60240855D01*
X102780990Y-60238644D01*
X102780988Y-60238643D01*
X102718734Y-60220557D01*
X102628831Y-60194438D01*
X102622426Y-60193934D01*
X102622421Y-60193933D01*
X102593958Y-60191693D01*
X102593950Y-60191693D01*
X102591502Y-60191500D01*
X101434500Y-60191500D01*
X101366379Y-60171498D01*
X101319886Y-60117842D01*
X101308500Y-60065500D01*
X101308500Y-59833498D01*
X101308307Y-59831042D01*
X101306067Y-59802579D01*
X101306066Y-59802574D01*
X101305562Y-59796169D01*
X101268790Y-59669597D01*
X101261357Y-59644012D01*
X101261356Y-59644010D01*
X101259145Y-59636399D01*
X101226088Y-59580502D01*
X101178491Y-59500020D01*
X101178489Y-59500017D01*
X101174453Y-59493193D01*
X101056807Y-59375547D01*
X101049983Y-59371511D01*
X101049980Y-59371509D01*
X100930992Y-59301140D01*
X100913601Y-59290855D01*
X100905990Y-59288644D01*
X100905988Y-59288643D01*
X100827374Y-59265804D01*
X100753831Y-59244438D01*
X100747419Y-59243933D01*
X100741078Y-59242775D01*
X100741406Y-59240978D01*
X100683270Y-59218818D01*
X100641132Y-59161679D01*
X100633500Y-59118494D01*
X100633500Y-58877378D01*
X100653502Y-58809257D01*
X100707158Y-58762764D01*
X100728935Y-58755920D01*
X100728831Y-58755562D01*
X100880988Y-58711357D01*
X100880990Y-58711356D01*
X100888601Y-58709145D01*
X101011437Y-58636500D01*
X101024980Y-58628491D01*
X101024983Y-58628489D01*
X101031807Y-58624453D01*
X101149453Y-58506807D01*
X101151706Y-58502998D01*
X101207996Y-58462345D01*
X101278888Y-58458494D01*
X101340609Y-58493582D01*
G37*
%TD.AperFunction*%
%TA.AperFunction,Conductor*%
G36*
X105433621Y-50528502D02*
G01*
X105480114Y-50582158D01*
X105491500Y-50634500D01*
X105491500Y-60021868D01*
X105471498Y-60089989D01*
X105417842Y-60136482D01*
X105347568Y-60146586D01*
X105321270Y-60139850D01*
X105223760Y-60103295D01*
X105210316Y-60098255D01*
X105148134Y-60091500D01*
X104594825Y-60091500D01*
X104526704Y-60071498D01*
X104480211Y-60017842D01*
X104470107Y-59947568D01*
X104473828Y-59930347D01*
X104504466Y-59824890D01*
X104515629Y-59786466D01*
X104516135Y-59780047D01*
X104518307Y-59752444D01*
X104518307Y-59752438D01*
X104518500Y-59749989D01*
X104518499Y-59250012D01*
X104515629Y-59213534D01*
X104470269Y-59057404D01*
X104413895Y-58962080D01*
X104396436Y-58893264D01*
X104418953Y-58825932D01*
X104456791Y-58791171D01*
X104456752Y-58791118D01*
X104611253Y-58678866D01*
X104615675Y-58673955D01*
X104734621Y-58541852D01*
X104734622Y-58541851D01*
X104739040Y-58536944D01*
X104798211Y-58434457D01*
X104831223Y-58377279D01*
X104831224Y-58377278D01*
X104834527Y-58371556D01*
X104893542Y-58189928D01*
X104899620Y-58132104D01*
X104912814Y-58006565D01*
X104913504Y-58000000D01*
X104902839Y-57898526D01*
X104894232Y-57816635D01*
X104894232Y-57816633D01*
X104893542Y-57810072D01*
X104834527Y-57628444D01*
X104775635Y-57526441D01*
X104758898Y-57457448D01*
X104773975Y-57407080D01*
X104773085Y-57406695D01*
X104776233Y-57399420D01*
X104780269Y-57392596D01*
X104825629Y-57236466D01*
X104826386Y-57226857D01*
X104828307Y-57202444D01*
X104828307Y-57202438D01*
X104828500Y-57199989D01*
X104828499Y-56800012D01*
X104825629Y-56763534D01*
X104780269Y-56607404D01*
X104776233Y-56600579D01*
X104776231Y-56600575D01*
X104748769Y-56554139D01*
X104731309Y-56485323D01*
X104748769Y-56425861D01*
X104776231Y-56379425D01*
X104776233Y-56379421D01*
X104780269Y-56372596D01*
X104825629Y-56216466D01*
X104828500Y-56179989D01*
X104828499Y-55780012D01*
X104825629Y-55743534D01*
X104794503Y-55636399D01*
X104782481Y-55595017D01*
X104782480Y-55595015D01*
X104780269Y-55587404D01*
X104750265Y-55536669D01*
X104701540Y-55454280D01*
X104697506Y-55447459D01*
X104670405Y-55420358D01*
X104636379Y-55358046D01*
X104633500Y-55331263D01*
X104633500Y-55125807D01*
X104653502Y-55057686D01*
X104670405Y-55036712D01*
X104686488Y-55020629D01*
X104703917Y-54991158D01*
X104765859Y-54886420D01*
X104765859Y-54886419D01*
X104769894Y-54879597D01*
X104815606Y-54722254D01*
X104816962Y-54705035D01*
X104818307Y-54687940D01*
X104818307Y-54687932D01*
X104818500Y-54685484D01*
X104818500Y-54274516D01*
X104818307Y-54272060D01*
X104816111Y-54244156D01*
X104816110Y-54244151D01*
X104815606Y-54237746D01*
X104769894Y-54080403D01*
X104706094Y-53972522D01*
X104690522Y-53946192D01*
X104686488Y-53939371D01*
X104570629Y-53823512D01*
X104524178Y-53796041D01*
X104436420Y-53744141D01*
X104436419Y-53744141D01*
X104429597Y-53740106D01*
X104421986Y-53737895D01*
X104421984Y-53737894D01*
X104333319Y-53712135D01*
X104272254Y-53694394D01*
X104265849Y-53693890D01*
X104265844Y-53693889D01*
X104237940Y-53691693D01*
X104237932Y-53691693D01*
X104235484Y-53691500D01*
X103764516Y-53691500D01*
X103762068Y-53691693D01*
X103762060Y-53691693D01*
X103734156Y-53693889D01*
X103734151Y-53693890D01*
X103727746Y-53694394D01*
X103666681Y-53712135D01*
X103578016Y-53737894D01*
X103578014Y-53737895D01*
X103570403Y-53740106D01*
X103563581Y-53744141D01*
X103563580Y-53744141D01*
X103475821Y-53796041D01*
X103407004Y-53813500D01*
X103339673Y-53790983D01*
X103322587Y-53776682D01*
X103195405Y-53649500D01*
X103161379Y-53587188D01*
X103158500Y-53560405D01*
X103158500Y-52701866D01*
X103151745Y-52639684D01*
X103100615Y-52503295D01*
X103013261Y-52386739D01*
X102896705Y-52299385D01*
X102760316Y-52248255D01*
X102698134Y-52241500D01*
X102439595Y-52241500D01*
X102371474Y-52221498D01*
X102350500Y-52204595D01*
X101378652Y-51232747D01*
X101371112Y-51224461D01*
X101367000Y-51217982D01*
X101317348Y-51171356D01*
X101314507Y-51168602D01*
X101294770Y-51148865D01*
X101291573Y-51146385D01*
X101282551Y-51138680D01*
X101269122Y-51126069D01*
X101250321Y-51108414D01*
X101243375Y-51104595D01*
X101243372Y-51104593D01*
X101232566Y-51098652D01*
X101216047Y-51087801D01*
X101215583Y-51087441D01*
X101200041Y-51075386D01*
X101192772Y-51072241D01*
X101192768Y-51072238D01*
X101159463Y-51057826D01*
X101148813Y-51052609D01*
X101110060Y-51031305D01*
X101090437Y-51026267D01*
X101071734Y-51019863D01*
X101060420Y-51014967D01*
X101060419Y-51014967D01*
X101053145Y-51011819D01*
X101045322Y-51010580D01*
X101045312Y-51010577D01*
X101009476Y-51004901D01*
X100997856Y-51002495D01*
X100962711Y-50993472D01*
X100962710Y-50993472D01*
X100955030Y-50991500D01*
X100934776Y-50991500D01*
X100915065Y-50989949D01*
X100902886Y-50988020D01*
X100895057Y-50986780D01*
X100865786Y-50989547D01*
X100851039Y-50990941D01*
X100839181Y-50991500D01*
X86643767Y-50991500D01*
X86632584Y-50990973D01*
X86625091Y-50989298D01*
X86617165Y-50989547D01*
X86617164Y-50989547D01*
X86557001Y-50991438D01*
X86553043Y-50991500D01*
X86525144Y-50991500D01*
X86521154Y-50992004D01*
X86509320Y-50992936D01*
X86465111Y-50994326D01*
X86457497Y-50996538D01*
X86457492Y-50996539D01*
X86445659Y-50999977D01*
X86426296Y-51003988D01*
X86406203Y-51006526D01*
X86398836Y-51009443D01*
X86398831Y-51009444D01*
X86365092Y-51022802D01*
X86353865Y-51026646D01*
X86311407Y-51038982D01*
X86304581Y-51043019D01*
X86293972Y-51049293D01*
X86276224Y-51057988D01*
X86257383Y-51065448D01*
X86250967Y-51070110D01*
X86250966Y-51070110D01*
X86221613Y-51091436D01*
X86211693Y-51097952D01*
X86180465Y-51116420D01*
X86180462Y-51116422D01*
X86173638Y-51120458D01*
X86159317Y-51134779D01*
X86144284Y-51147619D01*
X86127893Y-51159528D01*
X86119217Y-51170016D01*
X86099702Y-51193605D01*
X86091712Y-51202384D01*
X84457345Y-52836750D01*
X84395033Y-52870776D01*
X84346154Y-52871702D01*
X84133373Y-52833800D01*
X84133367Y-52833799D01*
X84128284Y-52832894D01*
X84054452Y-52831992D01*
X83910081Y-52830228D01*
X83910079Y-52830228D01*
X83904911Y-52830165D01*
X83684091Y-52863955D01*
X83471756Y-52933357D01*
X83273607Y-53036507D01*
X83269474Y-53039610D01*
X83269471Y-53039612D01*
X83099100Y-53167530D01*
X83094965Y-53170635D01*
X82940629Y-53332138D01*
X82814743Y-53516680D01*
X82812567Y-53521369D01*
X82812563Y-53521375D01*
X82748788Y-53658768D01*
X82701964Y-53712135D01*
X82633720Y-53731716D01*
X82565725Y-53711292D01*
X82519565Y-53657350D01*
X82508500Y-53605718D01*
X82508500Y-50634500D01*
X82528502Y-50566379D01*
X82582158Y-50519886D01*
X82634500Y-50508500D01*
X105365500Y-50508500D01*
X105433621Y-50528502D01*
G37*
%TD.AperFunction*%
%TA.AperFunction,Conductor*%
G36*
X100628527Y-52278502D02*
G01*
X100649501Y-52295405D01*
X101104595Y-52750499D01*
X101138621Y-52812811D01*
X101141500Y-52839594D01*
X101141500Y-54298134D01*
X101148255Y-54360316D01*
X101199385Y-54496705D01*
X101286739Y-54613261D01*
X101403295Y-54700615D01*
X101539684Y-54751745D01*
X101601866Y-54758500D01*
X102460406Y-54758500D01*
X102528527Y-54778502D01*
X102549501Y-54795405D01*
X102626343Y-54872247D01*
X102633887Y-54880537D01*
X102638000Y-54887018D01*
X102643777Y-54892443D01*
X102687667Y-54933658D01*
X102690509Y-54936413D01*
X102710230Y-54956134D01*
X102713425Y-54958612D01*
X102722447Y-54966318D01*
X102754679Y-54996586D01*
X102761628Y-55000406D01*
X102770139Y-55005085D01*
X102820198Y-55055430D01*
X102835092Y-55124846D01*
X102810092Y-55191296D01*
X102753135Y-55233680D01*
X102709439Y-55241500D01*
X101808498Y-55241500D01*
X101806050Y-55241693D01*
X101806042Y-55241693D01*
X101777579Y-55243933D01*
X101777574Y-55243934D01*
X101771169Y-55244438D01*
X101671231Y-55273472D01*
X101619012Y-55288643D01*
X101619010Y-55288644D01*
X101611399Y-55290855D01*
X101604572Y-55294892D01*
X101604573Y-55294892D01*
X101475020Y-55371509D01*
X101475017Y-55371511D01*
X101468193Y-55375547D01*
X101350547Y-55493193D01*
X101348294Y-55497002D01*
X101292004Y-55537655D01*
X101221112Y-55541506D01*
X101159391Y-55506418D01*
X101152724Y-55498724D01*
X101149453Y-55493193D01*
X101031807Y-55375547D01*
X101024983Y-55371511D01*
X101024980Y-55371509D01*
X100895427Y-55294892D01*
X100895428Y-55294892D01*
X100888601Y-55290855D01*
X100880990Y-55288644D01*
X100880988Y-55288643D01*
X100828769Y-55273472D01*
X100728831Y-55244438D01*
X100722426Y-55243934D01*
X100722421Y-55243933D01*
X100693958Y-55241693D01*
X100693950Y-55241693D01*
X100691502Y-55241500D01*
X100230792Y-55241500D01*
X100162671Y-55221498D01*
X100153935Y-55215321D01*
X100153802Y-55215242D01*
X100147541Y-55210386D01*
X100140272Y-55207241D01*
X100140268Y-55207238D01*
X100106963Y-55192826D01*
X100096313Y-55187609D01*
X100057560Y-55166305D01*
X100048342Y-55163938D01*
X100037938Y-55161267D01*
X100019234Y-55154863D01*
X100007920Y-55149967D01*
X100007919Y-55149967D01*
X100000645Y-55146819D01*
X99992822Y-55145580D01*
X99992812Y-55145577D01*
X99956976Y-55139901D01*
X99945356Y-55137495D01*
X99910211Y-55128472D01*
X99910210Y-55128472D01*
X99902530Y-55126500D01*
X99882276Y-55126500D01*
X99862565Y-55124949D01*
X99850386Y-55123020D01*
X99842557Y-55121780D01*
X99799957Y-55125807D01*
X99798539Y-55125941D01*
X99786681Y-55126500D01*
X97640694Y-55126500D01*
X97576555Y-55108954D01*
X97449419Y-55033766D01*
X97449418Y-55033766D01*
X97442596Y-55029731D01*
X97434985Y-55027520D01*
X97434983Y-55027519D01*
X97309827Y-54991158D01*
X97286466Y-54984371D01*
X97280059Y-54983867D01*
X97280055Y-54983866D01*
X97252444Y-54981693D01*
X97252438Y-54981693D01*
X97249989Y-54981500D01*
X97000152Y-54981500D01*
X96750012Y-54981501D01*
X96713534Y-54984371D01*
X96642236Y-55005085D01*
X96565017Y-55027519D01*
X96565015Y-55027520D01*
X96557404Y-55029731D01*
X96550582Y-55033766D01*
X96550581Y-55033766D01*
X96442978Y-55097402D01*
X96417459Y-55112494D01*
X96416375Y-55113578D01*
X96352938Y-55138487D01*
X96297564Y-55130963D01*
X96210316Y-55098255D01*
X96148134Y-55091500D01*
X94351866Y-55091500D01*
X94289684Y-55098255D01*
X94153295Y-55149385D01*
X94036739Y-55236739D01*
X93949385Y-55353295D01*
X93898255Y-55489684D01*
X93891500Y-55551866D01*
X93891500Y-56948134D01*
X93898255Y-57010316D01*
X93949385Y-57146705D01*
X94036739Y-57263261D01*
X94043919Y-57268642D01*
X94043921Y-57268644D01*
X94048172Y-57271830D01*
X94090687Y-57328689D01*
X94095711Y-57399508D01*
X94081059Y-57436794D01*
X94049768Y-57489705D01*
X94028041Y-57526444D01*
X94009731Y-57557404D01*
X93964371Y-57713534D01*
X93963867Y-57719941D01*
X93963866Y-57719945D01*
X93961693Y-57747556D01*
X93961500Y-57750011D01*
X93961500Y-57830405D01*
X93941498Y-57898526D01*
X93924595Y-57919500D01*
X93244500Y-58599595D01*
X93182188Y-58633621D01*
X93155405Y-58636500D01*
X85276805Y-58636500D01*
X85208684Y-58616498D01*
X85171013Y-58578940D01*
X85082822Y-58442617D01*
X85082820Y-58442614D01*
X85080014Y-58438277D01*
X84929670Y-58273051D01*
X84925619Y-58269852D01*
X84925615Y-58269848D01*
X84758414Y-58137800D01*
X84758410Y-58137798D01*
X84754359Y-58134598D01*
X84713053Y-58111796D01*
X84663084Y-58061364D01*
X84648312Y-57991921D01*
X84673428Y-57925516D01*
X84700780Y-57898909D01*
X84825325Y-57810072D01*
X84879860Y-57771173D01*
X84898619Y-57752480D01*
X84961209Y-57690107D01*
X85038096Y-57613489D01*
X85072927Y-57565017D01*
X85165435Y-57436277D01*
X85168453Y-57432077D01*
X85177585Y-57413601D01*
X85265136Y-57236453D01*
X85265137Y-57236451D01*
X85267430Y-57231811D01*
X85332370Y-57018069D01*
X85361529Y-56796590D01*
X85361933Y-56780073D01*
X85363074Y-56733365D01*
X85363074Y-56733361D01*
X85363156Y-56730000D01*
X85344852Y-56507361D01*
X85290431Y-56290702D01*
X85201354Y-56085840D01*
X85080014Y-55898277D01*
X84929670Y-55733051D01*
X84925619Y-55729852D01*
X84925615Y-55729848D01*
X84758414Y-55597800D01*
X84758410Y-55597798D01*
X84754359Y-55594598D01*
X84713053Y-55571796D01*
X84663084Y-55521364D01*
X84648312Y-55451921D01*
X84673428Y-55385516D01*
X84700780Y-55358909D01*
X84744603Y-55327650D01*
X84879860Y-55231173D01*
X84895768Y-55215321D01*
X84965756Y-55145577D01*
X85038096Y-55073489D01*
X85097257Y-54991158D01*
X85165435Y-54896277D01*
X85168453Y-54892077D01*
X85170954Y-54887018D01*
X85265136Y-54696453D01*
X85265137Y-54696451D01*
X85267430Y-54691811D01*
X85326708Y-54496705D01*
X85330865Y-54483023D01*
X85330865Y-54483021D01*
X85332370Y-54478069D01*
X85361529Y-54256590D01*
X85361833Y-54244156D01*
X85363074Y-54193365D01*
X85363074Y-54193361D01*
X85363156Y-54190000D01*
X85344852Y-53967361D01*
X85316821Y-53855765D01*
X85319625Y-53784823D01*
X85349930Y-53735974D01*
X86790500Y-52295405D01*
X86852812Y-52261379D01*
X86879595Y-52258500D01*
X100560406Y-52258500D01*
X100628527Y-52278502D01*
G37*
%TD.AperFunction*%
%TA.AperFunction,Conductor*%
G36*
X98946957Y-56413502D02*
G01*
X98989953Y-56464135D01*
X98990855Y-56463601D01*
X98994890Y-56470424D01*
X98994891Y-56470426D01*
X99071509Y-56599980D01*
X99071511Y-56599983D01*
X99075547Y-56606807D01*
X99193193Y-56724453D01*
X99200017Y-56728489D01*
X99200020Y-56728491D01*
X99250898Y-56758580D01*
X99336399Y-56809145D01*
X99344010Y-56811356D01*
X99344012Y-56811357D01*
X99376031Y-56820659D01*
X99496169Y-56855562D01*
X99502574Y-56856066D01*
X99502579Y-56856067D01*
X99531042Y-56858307D01*
X99531050Y-56858307D01*
X99533498Y-56858500D01*
X100691502Y-56858500D01*
X100693950Y-56858307D01*
X100693958Y-56858307D01*
X100722421Y-56856067D01*
X100722426Y-56856066D01*
X100728831Y-56855562D01*
X100848969Y-56820659D01*
X100880988Y-56811357D01*
X100880990Y-56811356D01*
X100888601Y-56809145D01*
X101026363Y-56727672D01*
X101095177Y-56710214D01*
X101162508Y-56732731D01*
X101206978Y-56788075D01*
X101216500Y-56836127D01*
X101216500Y-57163873D01*
X101196498Y-57231994D01*
X101142842Y-57278487D01*
X101072568Y-57288591D01*
X101026364Y-57272328D01*
X100888601Y-57190855D01*
X100880990Y-57188644D01*
X100880988Y-57188643D01*
X100795727Y-57163873D01*
X100728831Y-57144438D01*
X100722426Y-57143934D01*
X100722421Y-57143933D01*
X100693958Y-57141693D01*
X100693950Y-57141693D01*
X100691502Y-57141500D01*
X99533498Y-57141500D01*
X99531050Y-57141693D01*
X99531042Y-57141693D01*
X99502579Y-57143933D01*
X99502574Y-57143934D01*
X99496169Y-57144438D01*
X99429273Y-57163873D01*
X99344012Y-57188643D01*
X99344010Y-57188644D01*
X99336399Y-57190855D01*
X99329572Y-57194892D01*
X99329573Y-57194892D01*
X99200020Y-57271509D01*
X99200017Y-57271511D01*
X99193193Y-57275547D01*
X99075547Y-57393193D01*
X98994620Y-57530033D01*
X98942730Y-57578483D01*
X98872879Y-57591188D01*
X98807248Y-57564113D01*
X98777050Y-57528891D01*
X98742341Y-57468774D01*
X98739040Y-57463056D01*
X98711147Y-57432077D01*
X98615675Y-57326045D01*
X98615674Y-57326044D01*
X98611253Y-57321134D01*
X98485894Y-57230055D01*
X98462094Y-57212763D01*
X98462093Y-57212762D01*
X98456752Y-57208882D01*
X98450724Y-57206198D01*
X98450722Y-57206197D01*
X98288319Y-57133891D01*
X98288318Y-57133891D01*
X98282288Y-57131206D01*
X98188888Y-57111353D01*
X98101944Y-57092872D01*
X98101939Y-57092872D01*
X98095487Y-57091500D01*
X97904513Y-57091500D01*
X97898061Y-57092872D01*
X97898056Y-57092872D01*
X97811112Y-57111353D01*
X97717712Y-57131206D01*
X97711682Y-57133891D01*
X97711681Y-57133891D01*
X97549278Y-57206197D01*
X97549276Y-57206198D01*
X97543248Y-57208882D01*
X97537909Y-57212761D01*
X97537902Y-57212765D01*
X97531472Y-57217437D01*
X97457413Y-57241500D01*
X97383486Y-57241500D01*
X97348333Y-57236497D01*
X97348227Y-57236466D01*
X97326160Y-57230055D01*
X97278431Y-57216188D01*
X97278426Y-57216187D01*
X97272254Y-57214394D01*
X97265849Y-57213890D01*
X97265844Y-57213889D01*
X97237940Y-57211693D01*
X97237932Y-57211693D01*
X97235484Y-57211500D01*
X96764516Y-57211500D01*
X96762068Y-57211693D01*
X96762060Y-57211693D01*
X96750472Y-57212605D01*
X96727746Y-57214394D01*
X96726773Y-57214677D01*
X96658114Y-57207443D01*
X96602739Y-57163012D01*
X96580176Y-57095696D01*
X96588105Y-57046701D01*
X96598970Y-57017719D01*
X96598971Y-57017715D01*
X96601745Y-57010316D01*
X96606624Y-56965404D01*
X96633866Y-56899842D01*
X96685503Y-56861860D01*
X96709911Y-56852196D01*
X96721142Y-56848351D01*
X96755983Y-56838229D01*
X96755984Y-56838229D01*
X96763593Y-56836018D01*
X96770412Y-56831985D01*
X96770417Y-56831983D01*
X96781028Y-56825707D01*
X96798776Y-56817012D01*
X96817617Y-56809552D01*
X96827346Y-56802484D01*
X96853387Y-56783564D01*
X96863307Y-56777048D01*
X96894535Y-56758580D01*
X96894538Y-56758578D01*
X96901362Y-56754542D01*
X96915683Y-56740221D01*
X96930717Y-56727380D01*
X96940694Y-56720131D01*
X96947107Y-56715472D01*
X96975298Y-56681395D01*
X96983288Y-56672616D01*
X97080500Y-56575404D01*
X97142812Y-56541378D01*
X97169595Y-56538499D01*
X97249988Y-56538499D01*
X97286466Y-56535629D01*
X97383765Y-56507361D01*
X97434983Y-56492481D01*
X97434985Y-56492480D01*
X97442596Y-56490269D01*
X97576555Y-56411046D01*
X97640694Y-56393500D01*
X98878836Y-56393500D01*
X98946957Y-56413502D01*
G37*
%TD.AperFunction*%
%TD*%
M02*
