<?xml version="1.0" encoding="UTF-8" standalone="no"?>
<!-- Created with Inkscape (http://www.inkscape.org/) -->

<svg
   version="1.1"
   id="svg4656"
   xml:space="preserve"
   width="601.00201"
   height="601.00195"
   viewBox="0 0 601.00201 601.00195"
   sodipodi:docname="huibike.svg"
   inkscape:export-filename="huibike.png"
   inkscape:export-xdpi="96"
   inkscape:export-ydpi="96"
   inkscape:version="1.2.2 (b0a8486541, 2022-12-01)"
   xmlns:inkscape="http://www.inkscape.org/namespaces/inkscape"
   xmlns:sodipodi="http://sodipodi.sourceforge.net/DTD/sodipodi-0.dtd"
   xmlns="http://www.w3.org/2000/svg"
   xmlns:svg="http://www.w3.org/2000/svg"><sodipodi:namedview
     id="namedview11"
     pagecolor="#ffffff"
     bordercolor="#000000"
     borderopacity="0.25"
     inkscape:showpageshadow="2"
     inkscape:pageopacity="0.0"
     inkscape:pagecheckerboard="0"
     inkscape:deskcolor="#d1d1d1"
     showgrid="false"
     inkscape:zoom="0.94176067"
     inkscape:cx="104.06041"
     inkscape:cy="300.50098"
     inkscape:window-width="1366"
     inkscape:window-height="718"
     inkscape:window-x="0"
     inkscape:window-y="0"
     inkscape:window-maximized="1"
     inkscape:current-layer="svg4656" /><defs
     id="defs4660" /><g
     id="g4662"
     transform="matrix(1.3333333,0,0,1.3333333,0,1.1691715e-5)"><g
       id="g4664"><path
   d="m 450.375,225.375 c 0,124.266 -100.734,225 -225,225 -124.266,0 -225,-100.734 -225,-225 0,-124.266 100.734,-225 225,-225 124.266,0 225,100.734 225,225 z"
   style="fill:#ffffff;fill-opacity:1;fill-rule:nonzero;stroke:none"
   id="path4666" /><path
   d="M 225.375,0 C 100.906,0 0,100.906 0,225.375 0,349.84 100.906,450.75 225.375,450.75 349.84,450.75 450.75,349.84 450.75,225.375 450.75,100.906 349.84,0 225.375,0 Z m 0,0.375 c 124.266,0 225,100.734 225,225 0,124.266 -100.734,225 -225,225 -124.266,0 -225,-100.734 -225,-225 0,-124.266 100.734,-225 225,-225 z"
   style="fill:#000000;fill-opacity:1;fill-rule:nonzero;stroke:none"
   id="path4668" />
<path
   id="path89"
   style="fill:#666666;fill-opacity:1;fill-rule:nonzero;stroke:none"
   d="m 246.3295,234.198 h 29.442 c 3.679,-6.34 7.769,-10.938 12.269,-13.801 4.496,-2.864 9.813,-4.293 15.949,-4.293 12.063,0 20.344,3.679 24.844,11.039 4.496,7.156 6.746,17.484 6.746,30.976 0,7.157 -0.203,13.192 -0.613,18.098 -0.41,4.703 -1.637,9.301 -3.68,13.801 -1.84,4.5 -4.91,8.18 -9.203,11.043 -4.293,2.656 -10.02,3.984 -17.176,3.984 -8.586,0 -15.539,-2.25 -20.855,-6.746 -5.317,-4.5 -8.793,-10.734 -10.426,-18.711 h -31.285 c 1.023,9.817 3.578,18.403 7.668,25.766 4.09,7.156 9.097,13.086 15.027,17.789 5.93,4.496 12.371,7.871 19.324,10.121 7.157,2.043 14.414,3.066 21.774,3.066 10.019,0 19.121,-2.25 27.297,-6.746 8.179,-4.5 14.824,-10.019 19.937,-16.562 4.906,-6.34 8.383,-13.192 10.426,-20.551 2.047,-7.359 3.066,-17.992 3.066,-31.898 0,-17.172 -1.226,-29.645 -3.679,-37.415 -2.453,-7.976 -6.95,-15.437 -13.493,-22.39 -4.296,-4.703 -9.917,-8.485 -16.871,-11.348 -6.949,-3.066 -14.312,-4.601 -22.082,-4.601 -13.289,0 -24.945,3.988 -34.964,11.961 v -49.379 h 86.796 v -31.282 h -116.238 z" />
<!--	 <path
         d="m 332.184,271.688 c 0,10.429 -2.762,18.605 -8.282,24.535 -5.519,5.929 -12.984,8.894 -22.39,8.894 -9.407,0 -16.867,-2.965 -22.387,-8.894 -5.523,-5.93 -8.281,-14.106 -8.281,-24.535 v -92.626 c 0,-10.425 2.758,-18.605 8.281,-24.535 5.52,-5.929 12.98,-8.894 22.387,-8.894 9.406,0 16.871,2.965 22.39,8.894 5.52,5.93 8.282,14.11 8.282,24.535 z m -92.625,1.839 c 0,9.817 1.636,18.606 4.906,26.375 3.476,7.774 8.078,14.418 13.801,19.938 5.929,5.519 12.578,9.711 19.937,12.574 7.359,2.66 15.129,3.988 23.309,3.988 8.179,0 15.949,-1.328 23.308,-3.988 7.567,-2.863 14.211,-6.953 19.938,-12.266 5.726,-5.523 10.222,-12.168 13.496,-19.937 3.473,-7.973 5.211,-16.867 5.211,-26.684 v -96.304 c 0,-9.813 -1.633,-18.606 -4.906,-26.375 -3.27,-7.77 -7.871,-14.414 -13.801,-19.938 -5.93,-5.519 -12.574,-9.609 -19.938,-12.265 -7.359,-2.864 -15.129,-4.297 -23.308,-4.297 -8.18,0 -16.051,1.433 -23.617,4.297 -7.36,2.656 -13.903,6.746 -19.629,12.265 -5.723,5.317 -10.325,11.961 -13.801,19.938 -3.27,7.769 -4.906,16.562 -4.906,26.375 z"
         style="fill:#666666;fill-opacity:1;fill-rule:nonzero;stroke:none"
         id="path4670" /> -->
	 <path
   d="m 87.289,335.957 v -29.391 l 85.438,-106.875 c 3.3,-4.195 5.453,-8.046 6.453,-11.546 1,-3.5 1.5,-6.895 1.5,-10.188 0,-7.594 -2.7,-14.66 -8.094,-21.203 -5.398,-6.551 -12.746,-9.828 -22.047,-9.828 -8.492,0 -15.762,2.824 -21.812,8.469 -6.043,5.648 -9.415,13.367 -10.11,23.156 H 87.289 c 0.094,-17.688 6.133,-32.598 18.125,-44.735 12,-12.144 26.242,-18.218 42.734,-18.218 18.188,0 33.348,6.121 45.485,18.359 12.144,12.242 18.219,27.008 18.219,44.297 0,14.793 -4.344,27.586 -13.032,38.375 l -70.312,88.141 h 83.344 v 31.187 z"
   style="fill:#666666;fill-opacity:1;fill-rule:nonzero;stroke:none"
   id="path4672" /><path
   d="M 225.375,7.926 C 105.352,7.926 7.93,105.352 7.93,225.375 c 0,120.023 97.422,217.445 217.445,217.445 120.023,0 217.449,-97.422 217.449,-217.445 0,-120.023 -97.426,-217.449 -217.449,-217.449 z m 0,11.25 c 43.414,0 83.672,13.402 116.883,36.285 L 55.457,342.258 C 32.578,309.047 19.176,268.789 19.176,225.375 19.176,111.43 111.43,19.176 225.375,19.176 Z m 123.676,41.156 c 2.265,1.703 4.492,3.453 6.687,5.246 l -290.16,290.16 c -1.793,-2.195 -3.543,-4.422 -5.246,-6.687 z m 12.988,10.609 c 2.109,1.868 4.184,3.774 6.215,5.723 L 76.664,368.25 c -1.949,-2.027 -3.855,-4.102 -5.723,-6.211 z M 374.086,82.5 c 1.949,2.027 3.855,4.102 5.723,6.211 L 88.711,379.809 c -2.109,-1.868 -4.184,-3.774 -6.211,-5.723 z m 11.086,12.508 c 1.793,2.195 3.543,4.422 5.246,6.687 L 101.699,390.418 c -2.265,-1.703 -4.496,-3.453 -6.687,-5.246 z m 10.121,13.484 c 22.879,33.215 36.285,73.469 36.285,116.883 0,113.945 -92.258,206.195 -206.203,206.195 -43.41,0 -83.672,-13.402 -116.883,-36.281 z"
   style="fill:#000000;fill-opacity:1;fill-rule:nonzero;stroke:none"
   id="path4674" /></g></g></svg>
